<svg width="240" height="25" viewBox="0 0 240 25" fill="none" xmlns="http://www.w3.org/2000/svg">
<path d="M11.5527 15.7148V18H1.47461V15.7148H11.5527ZM11.4062 5.41211L2.77344 18H0.712891V16.3203L9.41406 3.78125H11.4062V5.41211ZM10.4004 3.78125V6.07617H0.722656V3.78125H10.4004ZM25.359 15.7148V18H17.7906V15.7148H25.359ZM18.7477 3.78125V18H15.818V3.78125H18.7477ZM24.3727 9.57227V11.7988H17.7906V9.57227H24.3727ZM25.3492 3.78125V6.07617H17.7906V3.78125H25.3492ZM35.0344 11.7598H31.382L31.3625 9.74805H34.4289C34.9693 9.74805 35.412 9.67969 35.757 9.54297C36.1021 9.39974 36.3592 9.19466 36.5285 8.92773C36.7043 8.6543 36.7922 8.32227 36.7922 7.93164C36.7922 7.48893 36.7076 7.13086 36.5383 6.85742C36.3755 6.58398 36.1184 6.38542 35.7668 6.26172C35.4217 6.13802 34.9758 6.07617 34.4289 6.07617H32.3977V18H29.468V3.78125H34.4289C35.2557 3.78125 35.9947 3.85938 36.6457 4.01562C37.3033 4.17188 37.8599 4.40951 38.3156 4.72852C38.7714 5.04753 39.1197 5.45117 39.3605 5.93945C39.6014 6.42122 39.7219 6.99414 39.7219 7.6582C39.7219 8.24414 39.5884 8.78451 39.3215 9.2793C39.0611 9.77409 38.6477 10.1777 38.0812 10.4902C37.5214 10.8027 36.7889 10.9753 35.884 11.0078L35.0344 11.7598ZM34.9074 18H30.5812L31.7238 15.7148H34.9074C35.4217 15.7148 35.8417 15.6335 36.1672 15.4707C36.4927 15.3014 36.7336 15.0736 36.8898 14.7871C37.0461 14.5007 37.1242 14.1719 37.1242 13.8008C37.1242 13.3841 37.0526 13.0228 36.9094 12.7168C36.7727 12.4108 36.5513 12.1764 36.2453 12.0137C35.9393 11.8444 35.5357 11.7598 35.0344 11.7598H32.2121L32.2316 9.74805H35.7473L36.4211 10.5391C37.287 10.526 37.9836 10.679 38.5109 10.998C39.0448 11.3105 39.4322 11.7174 39.673 12.2188C39.9204 12.7201 40.0441 13.2572 40.0441 13.8301C40.0441 14.7415 39.8456 15.5098 39.4484 16.1348C39.0513 16.7533 38.4686 17.2188 37.7004 17.5312C36.9387 17.8438 36.0077 18 34.9074 18ZM44.6414 3.78125H49.9441C51.0314 3.78125 51.9656 3.94401 52.7469 4.26953C53.5346 4.59505 54.1401 5.07682 54.5633 5.71484C54.9865 6.35286 55.198 7.13737 55.198 8.06836C55.198 8.83008 55.0678 9.48438 54.8074 10.0312C54.5535 10.5716 54.1922 11.0241 53.7234 11.3887C53.2612 11.7467 52.7176 12.0332 52.0926 12.248L51.1648 12.7363H46.5555L46.5359 10.4512H49.9637C50.478 10.4512 50.9044 10.36 51.243 10.1777C51.5815 9.99544 51.8354 9.74154 52.0047 9.41602C52.1805 9.09049 52.2684 8.71289 52.2684 8.2832C52.2684 7.82747 52.1837 7.43359 52.0145 7.10156C51.8452 6.76953 51.588 6.51562 51.243 6.33984C50.8979 6.16406 50.465 6.07617 49.9441 6.07617H47.5711V18H44.6414V3.78125ZM52.5906 18L49.3484 11.6621L52.4441 11.6426L55.7254 17.8633V18H52.5906ZM65.6352 6.21289L61.768 18H58.6527L63.9359 3.78125H65.9184L65.6352 6.21289ZM68.848 18L64.9711 6.21289L64.6586 3.78125H66.6605L71.973 18H68.848ZM68.6723 12.707V15.002H61.1625V12.707H68.6723Z" fill="black"/>
<path d="M11.5527 15.7148H12.5527V14.7148H11.5527V15.7148ZM11.5527 18V19H12.5527V18H11.5527ZM1.47461 18H0.474609V19H1.47461V18ZM1.47461 15.7148V14.7148H0.474609V15.7148H1.47461ZM11.4062 5.41211L12.2309 5.97769L12.4062 5.72207V5.41211H11.4062ZM2.77344 18V19H3.3002L3.59813 18.5656L2.77344 18ZM0.712891 18H-0.287109V19H0.712891V18ZM0.712891 16.3203L-0.108679 15.7502L-0.287109 16.0073V16.3203H0.712891ZM9.41406 3.78125V2.78125H8.89081L8.59249 3.21114L9.41406 3.78125ZM11.4062 3.78125H12.4062V2.78125H11.4062V3.78125ZM10.4004 3.78125H11.4004V2.78125H10.4004V3.78125ZM10.4004 6.07617V7.07617H11.4004V6.07617H10.4004ZM0.722656 6.07617H-0.277344V7.07617H0.722656V6.07617ZM0.722656 3.78125V2.78125H-0.277344V3.78125H0.722656ZM10.5527 15.7148V18H12.5527V15.7148H10.5527ZM11.5527 17H1.47461V19H11.5527V17ZM2.47461 18V15.7148H0.474609V18H2.47461ZM1.47461 16.7148H11.5527V14.7148H1.47461V16.7148ZM10.5816 4.84653L1.94874 17.4344L3.59813 18.5656L12.2309 5.97769L10.5816 4.84653ZM2.77344 17H0.712891V19H2.77344V17ZM1.71289 18V16.3203H-0.287109V18H1.71289ZM1.53446 16.8904L10.2356 4.35136L8.59249 3.21114L-0.108679 15.7502L1.53446 16.8904ZM9.41406 4.78125H11.4062V2.78125H9.41406V4.78125ZM10.4062 3.78125V5.41211H12.4062V3.78125H10.4062ZM9.40039 3.78125V6.07617H11.4004V3.78125H9.40039ZM10.4004 5.07617H0.722656V7.07617H10.4004V5.07617ZM1.72266 6.07617V3.78125H-0.277344V6.07617H1.72266ZM0.722656 4.78125H10.4004V2.78125H0.722656V4.78125ZM25.359 15.7148H26.359V14.7148H25.359V15.7148ZM25.359 18V19H26.359V18H25.359ZM17.7906 18H16.7906V19H17.7906V18ZM17.7906 15.7148V14.7148H16.7906V15.7148H17.7906ZM18.7477 3.78125H19.7477V2.78125H18.7477V3.78125ZM18.7477 18V19H19.7477V18H18.7477ZM15.818 18H14.818V19H15.818V18ZM15.818 3.78125V2.78125H14.818V3.78125H15.818ZM24.3727 9.57227H25.3727V8.57227H24.3727V9.57227ZM24.3727 11.7988V12.7988H25.3727V11.7988H24.3727ZM17.7906 11.7988H16.7906V12.7988H17.7906V11.7988ZM17.7906 9.57227V8.57227H16.7906V9.57227H17.7906ZM25.3492 3.78125H26.3492V2.78125H25.3492V3.78125ZM25.3492 6.07617V7.07617H26.3492V6.07617H25.3492ZM17.7906 6.07617H16.7906V7.07617H17.7906V6.07617ZM17.7906 3.78125V2.78125H16.7906V3.78125H17.7906ZM24.359 15.7148V18H26.359V15.7148H24.359ZM25.359 17H17.7906V19H25.359V17ZM18.7906 18V15.7148H16.7906V18H18.7906ZM17.7906 16.7148H25.359V14.7148H17.7906V16.7148ZM17.7477 3.78125V18H19.7477V3.78125H17.7477ZM18.7477 17H15.818V19H18.7477V17ZM16.818 18V3.78125H14.818V18H16.818ZM15.818 4.78125H18.7477V2.78125H15.818V4.78125ZM23.3727 9.57227V11.7988H25.3727V9.57227H23.3727ZM24.3727 10.7988H17.7906V12.7988H24.3727V10.7988ZM18.7906 11.7988V9.57227H16.7906V11.7988H18.7906ZM17.7906 10.5723H24.3727V8.57227H17.7906V10.5723ZM24.3492 3.78125V6.07617H26.3492V3.78125H24.3492ZM25.3492 5.07617H17.7906V7.07617H25.3492V5.07617ZM18.7906 6.07617V3.78125H16.7906V6.07617H18.7906ZM17.7906 4.78125H25.3492V2.78125H17.7906V4.78125ZM35.0344 11.7598V12.7598H35.4133L35.6971 12.5086L35.0344 11.7598ZM31.382 11.7598L30.3821 11.7695L30.3917 12.7598H31.382V11.7598ZM31.3625 9.74805V8.74805H30.3527L30.3625 9.75776L31.3625 9.74805ZM35.757 9.54297L36.1254 10.4727L36.1329 10.4697L36.1404 10.4666L35.757 9.54297ZM36.5285 8.92773L35.6873 8.38697L35.684 8.39219L36.5285 8.92773ZM36.5383 6.85742L35.679 7.36891L35.6834 7.37638L35.688 7.38378L36.5383 6.85742ZM35.7668 6.26172L35.4293 7.20307L35.4349 7.20503L35.7668 6.26172ZM32.3977 6.07617V5.07617H31.3977V6.07617H32.3977ZM32.3977 18V19H33.3977V18H32.3977ZM29.468 18H28.468V19H29.468V18ZM29.468 3.78125V2.78125H28.468V3.78125H29.468ZM36.6457 4.01562L36.4123 4.98801L36.4145 4.98853L36.6457 4.01562ZM38.3156 4.72852L37.7422 5.54775L38.3156 4.72852ZM39.3605 5.93945L38.4637 6.38188L38.4661 6.38667L39.3605 5.93945ZM39.3215 9.2793L38.4413 8.80448L38.4366 8.81355L39.3215 9.2793ZM38.0812 10.4902L37.5982 9.61465L37.5939 9.61704L38.0812 10.4902ZM35.884 11.0078L35.848 10.0085L35.4897 10.0213L35.2212 10.259L35.884 11.0078ZM30.5812 18L29.6868 17.5528L28.9632 19H30.5812V18ZM31.7238 15.7148V14.7148H31.1058L30.8294 15.2676L31.7238 15.7148ZM36.1672 15.4707L36.6144 16.3651L36.6215 16.3616L36.6285 16.3579L36.1672 15.4707ZM36.9094 12.7168L35.9964 13.1247L36 13.1328L36.0037 13.1407L36.9094 12.7168ZM36.2453 12.0137L35.7612 12.8887L35.7684 12.8927L35.7757 12.8965L36.2453 12.0137ZM32.2121 11.7598L31.2122 11.7501L31.2024 12.7598H32.2121V11.7598ZM32.2316 9.74805V8.74805H31.2413L31.2317 9.73834L32.2316 9.74805ZM35.7473 9.74805L36.5085 9.09958L36.2091 8.74805H35.7473V9.74805ZM36.4211 10.5391L35.6599 11.1875L35.9652 11.546L36.4361 11.5389L36.4211 10.5391ZM38.5109 10.998L37.9933 11.8537L37.9995 11.8574L38.0058 11.8611L38.5109 10.998ZM39.673 12.2188L38.7717 12.6519L38.7763 12.6613L39.673 12.2188ZM39.4484 16.1348L40.2899 16.6751L40.2925 16.6711L39.4484 16.1348ZM37.7004 17.5312L37.3236 16.6049L37.3208 16.6061L37.7004 17.5312ZM35.0344 10.7598H31.382V12.7598H35.0344V10.7598ZM32.382 11.7501L32.3625 9.73834L30.3625 9.75776L30.3821 11.7695L32.382 11.7501ZM31.3625 10.748H34.4289V8.74805H31.3625V10.748ZM34.4289 10.748C35.0429 10.748 35.6225 10.6719 36.1254 10.4727L35.3887 8.61329C35.2014 8.68748 34.8957 8.74805 34.4289 8.74805V10.748ZM36.1404 10.4666C36.64 10.2592 37.0747 9.93372 37.373 9.46328L35.684 8.39219C35.6438 8.45561 35.5642 8.54028 35.3737 8.61938L36.1404 10.4666ZM37.3697 9.46849C37.6684 9.00376 37.7922 8.47493 37.7922 7.93164H35.7922C35.7922 8.1696 35.7401 8.30484 35.6873 8.38698L37.3697 9.46849ZM37.7922 7.93164C37.7922 7.37034 37.686 6.8115 37.3885 6.33107L35.688 7.38378C35.7291 7.45022 35.7922 7.60752 35.7922 7.93164H37.7922ZM37.3976 6.34594C37.0951 5.83779 36.6315 5.50586 36.0987 5.31841L35.4349 7.20503C35.6052 7.26497 35.6559 7.33018 35.679 7.36891L37.3976 6.34594ZM36.1043 5.32038C35.6115 5.14375 35.0398 5.07617 34.4289 5.07617V7.07617C34.9118 7.07617 35.2319 7.13229 35.4293 7.20306L36.1043 5.32038ZM34.4289 5.07617H32.3977V7.07617H34.4289V5.07617ZM31.3977 6.07617V18H33.3977V6.07617H31.3977ZM32.3977 17H29.468V19H32.3977V17ZM30.468 18V3.78125H28.468V18H30.468ZM29.468 4.78125H34.4289V2.78125H29.468V4.78125ZM34.4289 4.78125C35.1947 4.78125 35.8531 4.8538 36.4123 4.98801L36.8791 3.04324C36.1362 2.86495 35.3168 2.78125 34.4289 2.78125V4.78125ZM36.4145 4.98853C36.975 5.12171 37.4094 5.31482 37.7422 5.54775L38.8891 3.90928C38.3104 3.50419 37.6315 3.22204 36.8769 3.04272L36.4145 4.98853ZM37.7422 5.54775C38.0633 5.77252 38.2989 6.04776 38.4637 6.38188L40.2574 5.49703C39.9404 4.85458 39.4794 4.32253 38.8891 3.90928L37.7422 5.54775ZM38.4661 6.38667C38.6233 6.701 38.7219 7.11391 38.7219 7.6582H40.7219C40.7219 6.87437 40.5796 6.14145 40.255 5.49224L38.4661 6.38667ZM38.7219 7.6582C38.7219 8.08564 38.6262 8.46185 38.4414 8.80451L40.2016 9.75409C40.5506 9.10716 40.7219 8.40264 40.7219 7.6582H38.7219ZM38.4366 8.81355C38.2808 9.10953 38.021 9.38138 37.5982 9.61466L38.5643 11.3658C39.2743 10.9741 39.8414 10.4386 40.2064 9.74504L38.4366 8.81355ZM37.5939 9.61704C37.2174 9.82715 36.6559 9.9794 35.848 10.0085L35.9199 12.0072C36.922 11.9711 37.8253 11.7783 38.5686 11.3634L37.5939 9.61704ZM35.2212 10.259L34.3716 11.0109L35.6971 12.5086L36.5467 11.7566L35.2212 10.259ZM34.9074 17H30.5812V19H34.9074V17ZM31.4757 18.4472L32.6183 16.1621L30.8294 15.2676L29.6868 17.5528L31.4757 18.4472ZM31.7238 16.7148H34.9074V14.7148H31.7238V16.7148ZM34.9074 16.7148C35.5169 16.7148 36.1048 16.6199 36.6144 16.3651L35.72 14.5763C35.5786 14.647 35.3266 14.7148 34.9074 14.7148V16.7148ZM36.6285 16.3579C37.1077 16.1088 37.5047 15.7481 37.7677 15.266L36.0119 14.3083C35.9624 14.399 35.8777 14.4941 35.7058 14.5835L36.6285 16.3579ZM37.7677 15.266C38.0146 14.8135 38.1242 14.3159 38.1242 13.8008H36.1242C36.1242 14.0278 36.0776 14.1878 36.0119 14.3083L37.7677 15.266ZM38.1242 13.8008C38.1242 13.271 38.0332 12.7588 37.8151 12.2929L36.0037 13.1407C36.072 13.2868 36.1242 13.4972 36.1242 13.8008H38.1242ZM37.8224 12.3089C37.5916 11.7923 37.2102 11.3943 36.7149 11.1308L35.7757 12.8965C35.8924 12.9586 35.9537 13.0294 35.9964 13.1247L37.8224 12.3089ZM36.7294 11.1386C36.2248 10.8595 35.6361 10.7598 35.0344 10.7598V12.7598C35.4352 12.7598 35.6539 12.8293 35.7612 12.8887L36.7294 11.1386ZM35.0344 10.7598H32.2121V12.7598H35.0344V10.7598ZM33.2121 11.7695L33.2316 9.75776L31.2317 9.73834L31.2122 11.7501L33.2121 11.7695ZM32.2316 10.748H35.7473V8.74805H32.2316V10.748ZM34.986 10.3965L35.6599 11.1875L37.1823 9.8906L36.5085 9.09958L34.986 10.3965ZM36.4361 11.5389C37.1871 11.5277 37.679 11.6635 37.9933 11.8537L39.0285 10.1424C38.2882 9.69457 37.3869 9.52443 36.4061 9.53918L36.4361 11.5389ZM38.0058 11.8611C38.3877 12.0847 38.6266 12.35 38.7717 12.6519L40.5744 11.7856C40.2377 11.0849 39.7018 10.5364 39.0161 10.135L38.0058 11.8611ZM38.7763 12.6613C38.954 13.0215 39.0441 13.4067 39.0441 13.8301H41.0441C41.0441 13.1076 40.8868 12.4186 40.5698 11.7762L38.7763 12.6613ZM39.0441 13.8301C39.0441 14.5955 38.8784 15.1672 38.6044 15.5985L40.2925 16.6711C40.8127 15.8523 41.0441 14.8876 41.0441 13.8301H39.0441ZM38.607 15.5945C38.3352 16.0177 37.9263 16.3598 37.3236 16.605L38.0772 18.4575C39.0109 18.0777 39.7674 17.4889 40.2899 16.6751L38.607 15.5945ZM37.3208 16.6061C36.7127 16.8556 35.9188 17 34.9074 17V19C36.0965 19 37.1647 18.8319 38.0799 18.4564L37.3208 16.6061ZM44.6414 3.78125V2.78125H43.6414V3.78125H44.6414ZM52.7469 4.26953L52.3623 5.19261L52.365 5.19373L52.7469 4.26953ZM54.8074 10.0312L53.9045 9.60131L53.9024 9.60598L54.8074 10.0312ZM53.7234 11.3887L54.3358 12.1792L54.3374 12.178L53.7234 11.3887ZM52.0926 12.248L51.7675 11.3024L51.6948 11.3273L51.6268 11.3631L52.0926 12.248ZM51.1648 12.7363V13.7363H51.4119L51.6306 13.6212L51.1648 12.7363ZM46.5555 12.7363L45.5555 12.7449L45.564 13.7363H46.5555V12.7363ZM46.5359 10.4512V9.45117H45.5274L45.536 10.4597L46.5359 10.4512ZM52.0047 9.41602L51.1248 8.94087L51.1211 8.94774L51.1175 8.95466L52.0047 9.41602ZM47.5711 6.07617V5.07617H46.5711V6.07617H47.5711ZM47.5711 18V19H48.5711V18H47.5711ZM44.6414 18H43.6414V19H44.6414V18ZM52.5906 18L51.7004 18.4554L51.9789 19H52.5906V18ZM49.3484 11.6621L49.3421 10.6621L47.7189 10.6724L48.4582 12.1175L49.3484 11.6621ZM52.4441 11.6426L53.3286 11.176L53.0452 10.6388L52.4378 10.6426L52.4441 11.6426ZM55.7254 17.8633H56.7254V17.6157L56.6099 17.3967L55.7254 17.8633ZM55.7254 18V19H56.7254V18H55.7254ZM44.6414 4.78125H49.9441V2.78125H44.6414V4.78125ZM49.9441 4.78125C50.9353 4.78125 51.7322 4.93008 52.3623 5.19261L53.1315 3.34645C52.1991 2.95794 51.1274 2.78125 49.9441 2.78125V4.78125ZM52.365 5.19373C52.9903 5.45213 53.4292 5.81412 53.7299 6.26758L55.3966 5.16211C54.851 4.33953 54.079 3.73797 53.1288 3.34533L52.365 5.19373ZM53.7299 6.26758C54.0229 6.70931 54.198 7.29109 54.198 8.06836H56.198C56.198 6.98365 55.95 5.99642 55.3966 5.16211L53.7299 6.26758ZM54.198 8.06836C54.198 8.71856 54.0867 9.21873 53.9046 9.60132L55.7103 10.4612C56.0489 9.75002 56.198 8.9416 56.198 8.06836H54.198ZM53.9024 9.60598C53.7151 10.0045 53.4532 10.332 53.1095 10.5993L54.3374 12.178C54.9312 11.7162 55.392 11.1387 55.7125 10.4565L53.9024 9.60598ZM53.111 10.5981C52.7459 10.881 52.3022 11.1186 51.7675 11.3024L52.4177 13.1937C53.133 12.9479 53.7765 12.6125 54.3358 12.1792L53.111 10.5981ZM51.6268 11.3631L50.6991 11.8514L51.6306 13.6212L52.5583 13.133L51.6268 11.3631ZM51.1648 11.7363H46.5555V13.7363H51.1648V11.7363ZM47.5554 12.7278L47.5359 10.4426L45.536 10.4597L45.5555 12.7449L47.5554 12.7278ZM46.5359 11.4512H49.9637V9.45117H46.5359V11.4512ZM49.9637 11.4512C50.5898 11.4512 51.1919 11.341 51.7171 11.0582L50.7689 9.29726C50.6169 9.37909 50.3662 9.45117 49.9637 9.45117V11.4512ZM51.7171 11.0582C52.2233 10.7856 52.6255 10.3897 52.8919 9.87737L51.1175 8.95466C51.0453 9.09338 50.9397 9.20525 50.7689 9.29726L51.7171 11.0582ZM52.8846 9.89116C53.1511 9.39768 53.2684 8.85185 53.2684 8.2832H51.2684C51.2684 8.57393 51.2099 8.78331 51.1248 8.94087L52.8846 9.89116ZM53.2684 8.2832C53.2684 7.70425 53.1606 7.148 52.9054 6.64738L51.1235 7.55575C51.2069 7.71919 51.2684 7.9507 51.2684 8.2832H53.2684ZM52.9054 6.64738C52.6363 6.11955 52.2222 5.71642 51.6969 5.4488L50.789 7.23088C50.9538 7.31483 51.0541 7.41951 51.1235 7.55575L52.9054 6.64738ZM51.6969 5.4488C51.1713 5.18105 50.5708 5.07617 49.9441 5.07617V7.07617C50.3591 7.07617 50.6245 7.14708 50.789 7.23088L51.6969 5.4488ZM49.9441 5.07617H47.5711V7.07617H49.9441V5.07617ZM46.5711 6.07617V18H48.5711V6.07617H46.5711ZM47.5711 17H44.6414V19H47.5711V17ZM45.6414 18V3.78125H43.6414V18H45.6414ZM53.4809 17.5446L50.2387 11.2067L48.4582 12.1175L51.7004 18.4554L53.4809 17.5446ZM49.3547 12.6621L52.4505 12.6426L52.4378 10.6426L49.3421 10.6621L49.3547 12.6621ZM51.5596 12.1091L54.8409 18.3298L56.6099 17.3967L53.3286 11.176L51.5596 12.1091ZM54.7254 17.8633V18H56.7254V17.8633H54.7254ZM55.7254 17H52.5906V19H55.7254V17ZM65.6352 6.21289L66.5853 6.52463L66.6168 6.42878L66.6284 6.32857L65.6352 6.21289ZM61.768 18V19H62.4923L62.7181 18.3117L61.768 18ZM58.6527 18L57.7154 17.6517L57.2144 19H58.6527V18ZM63.9359 3.78125V2.78125H63.2407L62.9986 3.43295L63.9359 3.78125ZM65.9184 3.78125L66.9116 3.89693L67.0416 2.78125H65.9184V3.78125ZM68.848 18L67.8981 18.3124L68.1243 19H68.848V18ZM64.9711 6.21289L63.9792 6.34036L63.9914 6.43484L64.0212 6.52534L64.9711 6.21289ZM64.6586 3.78125V2.78125H63.5219L63.6667 3.90872L64.6586 3.78125ZM66.6605 3.78125L67.5973 3.43125L67.3544 2.78125H66.6605V3.78125ZM71.973 18V19H73.4142L72.9098 17.65L71.973 18ZM68.6723 12.707H69.6723V11.707H68.6723V12.707ZM68.6723 15.002V16.002H69.6723V15.002H68.6723ZM61.1625 15.002H60.1625V16.002H61.1625V15.002ZM61.1625 12.707V11.707H60.1625V12.707H61.1625ZM64.685 5.90115L60.8178 17.6883L62.7181 18.3117L66.5853 6.52463L64.685 5.90115ZM61.768 17H58.6527V19H61.768V17ZM59.5901 18.3483L64.8733 4.12955L62.9986 3.43295L57.7154 17.6517L59.5901 18.3483ZM63.9359 4.78125H65.9184V2.78125H63.9359V4.78125ZM64.9251 3.66557L64.6419 6.09721L66.6284 6.32857L66.9116 3.89693L64.9251 3.66557ZM69.798 17.6876L65.921 5.90044L64.0212 6.52534L67.8981 18.3124L69.798 17.6876ZM65.9629 6.08542L65.6504 3.65378L63.6667 3.90872L63.9792 6.34036L65.9629 6.08542ZM64.6586 4.78125H66.6605V2.78125H64.6586V4.78125ZM65.7238 4.13125L71.0363 18.35L72.9098 17.65L67.5973 3.43125L65.7238 4.13125ZM71.973 17H68.848V19H71.973V17ZM67.6723 12.707V15.002H69.6723V12.707H67.6723ZM68.6723 14.002H61.1625V16.002H68.6723V14.002ZM62.1625 15.002V12.707H60.1625V15.002H62.1625ZM61.1625 13.707H68.6723V11.707H61.1625V13.707Z" fill="black"/>
<path d="M11.5527 15.7148V18H1.47461V15.7148H11.5527ZM11.4062 5.41211L2.77344 18H0.712891V16.3203L9.41406 3.78125H11.4062V5.41211ZM10.4004 3.78125V6.07617H0.722656V3.78125H10.4004ZM25.359 15.7148V18H17.7906V15.7148H25.359ZM18.7477 3.78125V18H15.818V3.78125H18.7477ZM24.3727 9.57227V11.7988H17.7906V9.57227H24.3727ZM25.3492 3.78125V6.07617H17.7906V3.78125H25.3492ZM35.0344 11.7598H31.382L31.3625 9.74805H34.4289C34.9693 9.74805 35.412 9.67969 35.757 9.54297C36.1021 9.39974 36.3592 9.19466 36.5285 8.92773C36.7043 8.6543 36.7922 8.32227 36.7922 7.93164C36.7922 7.48893 36.7076 7.13086 36.5383 6.85742C36.3755 6.58398 36.1184 6.38542 35.7668 6.26172C35.4217 6.13802 34.9758 6.07617 34.4289 6.07617H32.3977V18H29.468V3.78125H34.4289C35.2557 3.78125 35.9947 3.85938 36.6457 4.01562C37.3033 4.17188 37.8599 4.40951 38.3156 4.72852C38.7714 5.04753 39.1197 5.45117 39.3605 5.93945C39.6014 6.42122 39.7219 6.99414 39.7219 7.6582C39.7219 8.24414 39.5884 8.78451 39.3215 9.2793C39.0611 9.77409 38.6477 10.1777 38.0812 10.4902C37.5214 10.8027 36.7889 10.9753 35.884 11.0078L35.0344 11.7598ZM34.9074 18H30.5812L31.7238 15.7148H34.9074C35.4217 15.7148 35.8417 15.6335 36.1672 15.4707C36.4927 15.3014 36.7336 15.0736 36.8898 14.7871C37.0461 14.5007 37.1242 14.1719 37.1242 13.8008C37.1242 13.3841 37.0526 13.0228 36.9094 12.7168C36.7727 12.4108 36.5513 12.1764 36.2453 12.0137C35.9393 11.8444 35.5357 11.7598 35.0344 11.7598H32.2121L32.2316 9.74805H35.7473L36.4211 10.5391C37.287 10.526 37.9836 10.679 38.5109 10.998C39.0448 11.3105 39.4322 11.7174 39.673 12.2188C39.9204 12.7201 40.0441 13.2572 40.0441 13.8301C40.0441 14.7415 39.8456 15.5098 39.4484 16.1348C39.0513 16.7533 38.4686 17.2188 37.7004 17.5312C36.9387 17.8438 36.0077 18 34.9074 18ZM44.6414 3.78125H49.9441C51.0314 3.78125 51.9656 3.94401 52.7469 4.26953C53.5346 4.59505 54.1401 5.07682 54.5633 5.71484C54.9865 6.35286 55.198 7.13737 55.198 8.06836C55.198 8.83008 55.0678 9.48438 54.8074 10.0312C54.5535 10.5716 54.1922 11.0241 53.7234 11.3887C53.2612 11.7467 52.7176 12.0332 52.0926 12.248L51.1648 12.7363H46.5555L46.5359 10.4512H49.9637C50.478 10.4512 50.9044 10.36 51.243 10.1777C51.5815 9.99544 51.8354 9.74154 52.0047 9.41602C52.1805 9.09049 52.2684 8.71289 52.2684 8.2832C52.2684 7.82747 52.1837 7.43359 52.0145 7.10156C51.8452 6.76953 51.588 6.51562 51.243 6.33984C50.8979 6.16406 50.465 6.07617 49.9441 6.07617H47.5711V18H44.6414V3.78125ZM52.5906 18L49.3484 11.6621L52.4441 11.6426L55.7254 17.8633V18H52.5906ZM65.6352 6.21289L61.768 18H58.6527L63.9359 3.78125H65.9184L65.6352 6.21289ZM68.848 18L64.9711 6.21289L64.6586 3.78125H66.6605L71.973 18H68.848ZM68.6723 12.707V15.002H61.1625V12.707H68.6723Z" fill="black"/>
<path d="M11.5527 15.7148H12.0527V15.2148H11.5527V15.7148ZM11.5527 18V18.5H12.0527V18H11.5527ZM1.47461 18H0.974609V18.5H1.47461V18ZM1.47461 15.7148V15.2148H0.974609V15.7148H1.47461ZM11.4062 5.41211L11.8186 5.6949L11.9062 5.56709V5.41211H11.4062ZM2.77344 18V18.5H3.03682L3.18578 18.2828L2.77344 18ZM0.712891 18H0.212891V18.5H0.712891V18ZM0.712891 16.3203L0.302106 16.0353L0.212891 16.1638V16.3203H0.712891ZM9.41406 3.78125V3.28125H9.15243L9.00328 3.4962L9.41406 3.78125ZM11.4062 3.78125H11.9062V3.28125H11.4062V3.78125ZM10.4004 3.78125H10.9004V3.28125H10.4004V3.78125ZM10.4004 6.07617V6.57617H10.9004V6.07617H10.4004ZM0.722656 6.07617H0.222656V6.57617H0.722656V6.07617ZM0.722656 3.78125V3.28125H0.222656V3.78125H0.722656ZM11.0527 15.7148V18H12.0527V15.7148H11.0527ZM11.5527 17.5H1.47461V18.5H11.5527V17.5ZM1.97461 18V15.7148H0.974609V18H1.97461ZM1.47461 16.2148H11.5527V15.2148H1.47461V16.2148ZM10.9939 5.12932L2.36109 17.7172L3.18578 18.2828L11.8186 5.6949L10.9939 5.12932ZM2.77344 17.5H0.712891V18.5H2.77344V17.5ZM1.21289 18V16.3203H0.212891V18H1.21289ZM1.12368 16.6054L9.82485 4.0663L9.00328 3.4962L0.302106 16.0353L1.12368 16.6054ZM9.41406 4.28125H11.4062V3.28125H9.41406V4.28125ZM10.9062 3.78125V5.41211H11.9062V3.78125H10.9062ZM9.90039 3.78125V6.07617H10.9004V3.78125H9.90039ZM10.4004 5.57617H0.722656V6.57617H10.4004V5.57617ZM1.22266 6.07617V3.78125H0.222656V6.07617H1.22266ZM0.722656 4.28125H10.4004V3.28125H0.722656V4.28125ZM25.359 15.7148H25.859V15.2148H25.359V15.7148ZM25.359 18V18.5H25.859V18H25.359ZM17.7906 18H17.2906V18.5H17.7906V18ZM17.7906 15.7148V15.2148H17.2906V15.7148H17.7906ZM18.7477 3.78125H19.2477V3.28125H18.7477V3.78125ZM18.7477 18V18.5H19.2477V18H18.7477ZM15.818 18H15.318V18.5H15.818V18ZM15.818 3.78125V3.28125H15.318V3.78125H15.818ZM24.3727 9.57227H24.8727V9.07227H24.3727V9.57227ZM24.3727 11.7988V12.2988H24.8727V11.7988H24.3727ZM17.7906 11.7988H17.2906V12.2988H17.7906V11.7988ZM17.7906 9.57227V9.07227H17.2906V9.57227H17.7906ZM25.3492 3.78125H25.8492V3.28125H25.3492V3.78125ZM25.3492 6.07617V6.57617H25.8492V6.07617H25.3492ZM17.7906 6.07617H17.2906V6.57617H17.7906V6.07617ZM17.7906 3.78125V3.28125H17.2906V3.78125H17.7906ZM24.859 15.7148V18H25.859V15.7148H24.859ZM25.359 17.5H17.7906V18.5H25.359V17.5ZM18.2906 18V15.7148H17.2906V18H18.2906ZM17.7906 16.2148H25.359V15.2148H17.7906V16.2148ZM18.2477 3.78125V18H19.2477V3.78125H18.2477ZM18.7477 17.5H15.818V18.5H18.7477V17.5ZM16.318 18V3.78125H15.318V18H16.318ZM15.818 4.28125H18.7477V3.28125H15.818V4.28125ZM23.8727 9.57227V11.7988H24.8727V9.57227H23.8727ZM24.3727 11.2988H17.7906V12.2988H24.3727V11.2988ZM18.2906 11.7988V9.57227H17.2906V11.7988H18.2906ZM17.7906 10.0723H24.3727V9.07227H17.7906V10.0723ZM24.8492 3.78125V6.07617H25.8492V3.78125H24.8492ZM25.3492 5.57617H17.7906V6.57617H25.3492V5.57617ZM18.2906 6.07617V3.78125H17.2906V6.07617H18.2906ZM17.7906 4.28125H25.3492V3.28125H17.7906V4.28125ZM35.0344 11.7598V12.2598H35.2239L35.3658 12.1342L35.0344 11.7598ZM31.382 11.7598L30.8821 11.7646L30.8869 12.2598H31.382V11.7598ZM31.3625 9.74805V9.24805H30.8576L30.8625 9.7529L31.3625 9.74805ZM35.757 9.54297L35.9412 10.0079L35.9487 10.0048L35.757 9.54297ZM36.5285 8.92773L36.1079 8.65735L36.1063 8.65996L36.5285 8.92773ZM36.5383 6.85742L36.1086 7.1132L36.1131 7.1206L36.5383 6.85742ZM35.7668 6.26172L35.5981 6.7324L35.6008 6.73338L35.7668 6.26172ZM32.3977 6.07617V5.57617H31.8977V6.07617H32.3977ZM32.3977 18V18.5H32.8977V18H32.3977ZM29.468 18H28.968V18.5H29.468V18ZM29.468 3.78125V3.28125H28.968V3.78125H29.468ZM36.6457 4.01562L36.529 4.50182L36.5301 4.50208L36.6457 4.01562ZM38.3156 4.72852L38.0289 5.13813L38.3156 4.72852ZM39.3605 5.93945L38.9121 6.16067L38.9133 6.16306L39.3605 5.93945ZM39.3215 9.2793L38.8814 9.04189L38.879 9.04642L39.3215 9.2793ZM38.0812 10.4902L37.8397 10.0524L37.8376 10.0536L38.0812 10.4902ZM35.884 11.0078L35.866 10.5081L35.6869 10.5146L35.5526 10.6334L35.884 11.0078ZM30.5812 18L30.134 17.7764L29.7722 18.5H30.5812V18ZM31.7238 15.7148V15.2148H31.4148L31.2766 15.4912L31.7238 15.7148ZM36.1672 15.4707L36.3908 15.918L36.3979 15.9143L36.1672 15.4707ZM36.9094 12.7168L36.4528 12.9208L36.4565 12.9288L36.9094 12.7168ZM36.2453 12.0137L36.0033 12.4512L36.0105 12.4551L36.2453 12.0137ZM32.2121 11.7598L31.7121 11.7549L31.7072 12.2598H32.2121V11.7598ZM32.2316 9.74805V9.24805H31.7365L31.7317 9.74319L32.2316 9.74805ZM35.7473 9.74805L36.1279 9.42381L35.9782 9.24805H35.7473V9.74805ZM36.4211 10.5391L36.0405 10.8633L36.1932 11.0425L36.4286 11.039L36.4211 10.5391ZM38.5109 10.998L38.2521 11.4259L38.2583 11.4296L38.5109 10.998ZM39.673 12.2188L39.2224 12.4353L39.2247 12.44L39.673 12.2188ZM39.4484 16.1348L39.8692 16.4049L39.8704 16.4029L39.4484 16.1348ZM37.7004 17.5312L37.512 17.0681L37.5106 17.0687L37.7004 17.5312ZM35.0344 11.2598H31.382V12.2598H35.0344V11.2598ZM31.882 11.7549L31.8625 9.74319L30.8625 9.7529L30.8821 11.7646L31.882 11.7549ZM31.3625 10.248H34.4289V9.24805H31.3625V10.248ZM34.4289 10.248C35.0061 10.248 35.5173 10.1758 35.9412 10.0078L35.5728 9.07813C35.3067 9.18358 34.9325 9.24805 34.4289 9.24805V10.248ZM35.9487 10.0048C36.371 9.82947 36.717 9.56419 36.9508 9.19551L36.1063 8.65996C36.0015 8.82513 35.8331 8.97001 35.5653 9.08117L35.9487 10.0048ZM36.9491 9.19811C37.1864 8.82903 37.2922 8.3986 37.2922 7.93164H36.2922C36.2922 8.24593 36.2222 8.47957 36.1079 8.65736L36.9491 9.19811ZM37.2922 7.93164C37.2922 7.42964 37.1968 6.97118 36.9634 6.59424L36.1131 7.1206C36.2183 7.29054 36.2922 7.54823 36.2922 7.93164H37.2922ZM36.9679 6.60168C36.7353 6.21089 36.3749 5.94564 35.9328 5.79006L35.6008 6.73338C35.8618 6.82519 36.0157 6.95708 36.1086 7.11316L36.9679 6.60168ZM35.9355 5.79105C35.5166 5.64088 35.0078 5.57617 34.4289 5.57617V6.57617C34.9438 6.57617 35.3268 6.63516 35.5981 6.73239L35.9355 5.79105ZM34.4289 5.57617H32.3977V6.57617H34.4289V5.57617ZM31.8977 6.07617V18H32.8977V6.07617H31.8977ZM32.3977 17.5H29.468V18.5H32.3977V17.5ZM29.968 18V3.78125H28.968V18H29.968ZM29.468 4.28125H34.4289V3.28125H29.468V4.28125ZM34.4289 4.28125C35.2252 4.28125 35.9239 4.35659 36.529 4.50182L36.7624 3.52943C36.0654 3.36216 35.2862 3.28125 34.4289 3.28125V4.28125ZM36.5301 4.50208C37.1391 4.64679 37.6347 4.86216 38.0289 5.13813L38.6024 4.3189C38.0851 3.95685 37.4674 3.69696 36.7613 3.52917L36.5301 4.50208ZM38.0289 5.13813C38.4173 5.41002 38.7093 5.74947 38.9121 6.16067L39.8089 5.71824C39.53 5.15288 39.1254 4.68503 38.6024 4.3189L38.0289 5.13813ZM38.9133 6.16306C39.1124 6.56111 39.2219 7.05403 39.2219 7.6582H40.2219C40.2219 6.93426 40.0905 6.28134 39.8078 5.71585L38.9133 6.16306ZM39.2219 7.6582C39.2219 8.16489 39.1073 8.62318 38.8814 9.0419L39.7615 9.51669C40.0695 8.94583 40.2219 8.32339 40.2219 7.6582H39.2219ZM38.879 9.04642C38.6709 9.44181 38.3343 9.77956 37.8397 10.0524L38.3228 10.928C38.961 10.5759 39.4512 10.1064 39.7639 9.51217L38.879 9.04642ZM37.8376 10.0536C37.3694 10.3149 36.7224 10.4773 35.866 10.5081L35.902 11.5075C36.8555 11.4732 37.6733 11.2905 38.3249 10.9268L37.8376 10.0536ZM35.5526 10.6334L34.703 11.3853L35.3658 12.1342L36.2154 11.3822L35.5526 10.6334ZM34.9074 17.5H30.5812V18.5H34.9074V17.5ZM31.0285 18.2236L32.171 15.9385L31.2766 15.4912L30.134 17.7764L31.0285 18.2236ZM31.7238 16.2148H34.9074V15.2148H31.7238V16.2148ZM34.9074 16.2148C35.4693 16.2148 35.9732 16.1267 36.3908 15.9179L35.9436 15.0235C35.7101 15.1402 35.3742 15.2148 34.9074 15.2148V16.2148ZM36.3979 15.9143C36.8002 15.7051 37.1192 15.4108 37.3288 15.0265L36.4509 14.5477C36.348 14.7363 36.1852 14.8978 35.9365 15.0271L36.3979 15.9143ZM37.3288 15.0265C37.5303 14.6571 37.6242 14.2439 37.6242 13.8008H36.6242C36.6242 14.0998 36.5619 14.3442 36.4509 14.5477L37.3288 15.0265ZM37.6242 13.8008C37.6242 13.3276 37.5429 12.8908 37.3622 12.5048L36.4565 12.9288C36.5623 13.1548 36.6242 13.4407 36.6242 13.8008H37.6242ZM37.3659 12.5128C37.1821 12.1015 36.8808 11.7853 36.4801 11.5722L36.0105 12.4551C36.2218 12.5675 36.3632 12.7201 36.4529 12.9208L37.3659 12.5128ZM36.4873 11.5762C36.0821 11.352 35.5859 11.2598 35.0344 11.2598V12.2598C35.4855 12.2598 35.7966 12.3369 36.0033 12.4512L36.4873 11.5762ZM35.0344 11.2598H32.2121V12.2598H35.0344V11.2598ZM32.7121 11.7646L32.7316 9.7529L31.7317 9.74319L31.7121 11.7549L32.7121 11.7646ZM32.2316 10.248H35.7473V9.24805H32.2316V10.248ZM35.3666 10.0723L36.0405 10.8633L36.8017 10.2148L36.1279 9.42381L35.3666 10.0723ZM36.4286 11.039C37.237 11.0268 37.8313 11.1713 38.2521 11.4259L38.7697 10.5702C38.1359 10.1868 37.3369 10.0252 36.4136 10.0391L36.4286 11.039ZM38.2583 11.4296C38.7163 11.6976 39.0294 12.0337 39.2224 12.4353L40.1237 12.0022C39.8349 11.4012 39.3733 10.9235 38.7635 10.5665L38.2583 11.4296ZM39.2247 12.44C39.4372 12.8708 39.5441 13.3319 39.5441 13.8301H40.5441C40.5441 13.1824 40.4036 12.5693 40.1214 11.9975L39.2247 12.44ZM39.5441 13.8301C39.5441 14.6685 39.362 15.3385 39.0264 15.8666L39.8704 16.4029C40.3291 15.681 40.5441 14.8145 40.5441 13.8301H39.5441ZM39.0277 15.8646C38.6933 16.3855 38.1975 16.7893 37.512 17.0681L37.8888 17.9944C38.7398 17.6482 39.4093 17.1211 39.8692 16.4049L39.0277 15.8646ZM37.5106 17.0687C36.8257 17.3497 35.9633 17.5 34.9074 17.5V18.5C36.0521 18.5 37.0517 18.3378 37.8902 17.9938L37.5106 17.0687ZM44.6414 3.78125V3.28125H44.1414V3.78125H44.6414ZM52.7469 4.26953L52.5546 4.73107L52.5559 4.73163L52.7469 4.26953ZM54.8074 10.0312L54.356 9.81628L54.3549 9.81861L54.8074 10.0312ZM53.7234 11.3887L54.0296 11.7839L54.0304 11.7833L53.7234 11.3887ZM52.0926 12.248L51.93 11.7752L51.8937 11.7877L51.8597 11.8056L52.0926 12.248ZM51.1648 12.7363V13.2363H51.2884L51.3977 13.1788L51.1648 12.7363ZM46.5555 12.7363L46.0555 12.7406L46.0597 13.2363H46.5555V12.7363ZM46.5359 10.4512V9.95117H46.0316L46.036 10.4554L46.5359 10.4512ZM52.0047 9.41602L51.5647 9.17841L51.5611 9.18534L52.0047 9.41602ZM47.5711 6.07617V5.57617H47.0711V6.07617H47.5711ZM47.5711 18V18.5H48.0711V18H47.5711ZM44.6414 18H44.1414V18.5H44.6414V18ZM52.5906 18L52.1455 18.2277L52.2848 18.5H52.5906V18ZM49.3484 11.6621L49.3453 11.1621L48.5337 11.1672L48.9033 11.8898L49.3484 11.6621ZM52.4441 11.6426L52.8864 11.4093L52.7447 11.1407L52.441 11.1426L52.4441 11.6426ZM55.7254 17.8633H56.2254V17.7395L56.1676 17.63L55.7254 17.8633ZM55.7254 18V18.5H56.2254V18H55.7254ZM44.6414 4.28125H49.9441V3.28125H44.6414V4.28125ZM49.9441 4.28125C50.9834 4.28125 51.8489 4.43705 52.5546 4.73107L52.9392 3.80799C52.0823 3.45097 51.0794 3.28125 49.9441 3.28125V4.28125ZM52.5559 4.73163C53.2625 5.02359 53.7846 5.44547 54.1466 5.99121L54.98 5.43848C54.4956 4.70817 53.8068 4.16651 52.9378 3.80743L52.5559 4.73163ZM54.1466 5.99121C54.5047 6.53109 54.698 7.21423 54.698 8.06836H55.698C55.698 7.06051 55.4682 6.17464 54.98 5.43848L54.1466 5.99121ZM54.698 8.06836C54.698 8.77432 54.5773 9.35155 54.356 9.81628L55.2589 10.2462C55.5584 9.6172 55.698 8.88584 55.698 8.06836H54.698ZM54.3549 9.81861C54.1343 10.2881 53.8227 10.678 53.4165 10.994L54.0304 11.7833C54.5617 11.3701 54.9727 10.8552 55.26 10.2439L54.3549 9.81861ZM53.4172 10.9934C53.0036 11.3139 52.5099 11.5759 51.93 11.7752L52.2551 12.7209C52.9253 12.4905 53.5188 12.1796 54.0296 11.7839L53.4172 10.9934ZM51.8597 11.8056L50.932 12.2939L51.3977 13.1788L52.3255 12.6905L51.8597 11.8056ZM51.1648 12.2363H46.5555V13.2363H51.1648V12.2363ZM47.0555 12.7321L47.0359 10.4469L46.036 10.4554L46.0555 12.7406L47.0555 12.7321ZM46.5359 10.9512H49.9637V9.95117H46.5359V10.9512ZM49.9637 10.9512C50.5339 10.9512 51.0482 10.8505 51.48 10.618L51.0059 9.7375C50.7607 9.86956 50.4221 9.95117 49.9637 9.95117V10.9512ZM51.48 10.618C51.9024 10.3905 52.2305 10.0656 52.4483 9.64669L51.5611 9.18534C51.4404 9.41746 51.2606 9.60035 51.0059 9.7375L51.48 10.618ZM52.4446 9.65359C52.6658 9.24409 52.7684 8.78237 52.7684 8.2832H51.7684C51.7684 8.64341 51.6952 8.9369 51.5647 9.17844L52.4446 9.65359ZM52.7684 8.2832C52.7684 7.76586 52.6722 7.2908 52.4599 6.87447L51.569 7.32866C51.6953 7.57639 51.7684 7.88909 51.7684 8.2832H52.7684ZM52.4599 6.87447C52.2407 6.44454 51.9051 6.11602 51.4699 5.89432L51.016 6.78536C51.2709 6.91523 51.4496 7.09452 51.569 7.32866L52.4599 6.87447ZM51.4699 5.89432C51.0346 5.67256 50.5179 5.57617 49.9441 5.57617V6.57617C50.4121 6.57617 50.7612 6.65557 51.016 6.78536L51.4699 5.89432ZM49.9441 5.57617H47.5711V6.57617H49.9441V5.57617ZM47.0711 6.07617V18H48.0711V6.07617H47.0711ZM47.5711 17.5H44.6414V18.5H47.5711V17.5ZM45.1414 18V3.78125H44.1414V18H45.1414ZM53.0358 17.7723L49.7936 11.4344L48.9033 11.8898L52.1455 18.2277L53.0358 17.7723ZM49.3516 12.1621L52.4473 12.1426L52.441 11.1426L49.3453 11.1621L49.3516 12.1621ZM52.0019 11.8759L55.2831 18.0966L56.1676 17.63L52.8864 11.4093L52.0019 11.8759ZM55.2254 17.8633V18H56.2254V17.8633H55.2254ZM55.7254 17.5H52.5906V18.5H55.7254V17.5ZM65.6352 6.21289L66.1102 6.36876L66.126 6.32083L66.1318 6.27073L65.6352 6.21289ZM61.768 18V18.5H62.1301L62.243 18.1559L61.768 18ZM58.6527 18L58.184 17.8258L57.9336 18.5H58.6527V18ZM63.9359 3.78125V3.28125H63.5883L63.4672 3.6071L63.9359 3.78125ZM65.9184 3.78125L66.415 3.83909L66.48 3.28125H65.9184V3.78125ZM68.848 18L68.3731 18.1562L68.4862 18.5H68.848V18ZM64.9711 6.21289L64.4752 6.27662L64.4812 6.32387L64.4961 6.36911L64.9711 6.21289ZM64.6586 3.78125V3.28125H64.0902L64.1627 3.84498L64.6586 3.78125ZM66.6605 3.78125L67.1289 3.60625L67.0075 3.28125H66.6605V3.78125ZM71.973 18V18.5H72.6936L72.4414 17.825L71.973 18ZM68.6723 12.707H69.1723V12.207H68.6723V12.707ZM68.6723 15.002V15.502H69.1723V15.002H68.6723ZM61.1625 15.002H60.6625V15.502H61.1625V15.002ZM61.1625 12.707V12.207H60.6625V12.707H61.1625ZM65.1601 6.05702L61.2929 17.8441L62.243 18.1559L66.1102 6.36876L65.1601 6.05702ZM61.768 17.5H58.6527V18.5H61.768V17.5ZM59.1214 18.1742L64.4046 3.9554L63.4672 3.6071L58.184 17.8258L59.1214 18.1742ZM63.9359 4.28125H65.9184V3.28125H63.9359V4.28125ZM65.4217 3.72341L65.1385 6.15505L66.1318 6.27073L66.415 3.83909L65.4217 3.72341ZM69.323 17.8438L65.4461 6.05667L64.4961 6.36911L68.3731 18.1562L69.323 17.8438ZM65.467 6.14916L65.1545 3.71752L64.1627 3.84498L64.4752 6.27662L65.467 6.14916ZM64.6586 4.28125H66.6605V3.28125H64.6586V4.28125ZM66.1922 3.95625L71.5047 18.175L72.4414 17.825L67.1289 3.60625L66.1922 3.95625ZM71.973 17.5H68.848V18.5H71.973V17.5ZM68.1723 12.707V15.002H69.1723V12.707H68.1723ZM68.6723 14.502H61.1625V15.502H68.6723V14.502ZM61.6625 15.002V12.707H60.6625V15.002H61.6625ZM61.1625 13.207H68.6723V12.207H61.1625V13.207Z" fill="white"/>
</svg>
