<svg width="451" height="450" viewBox="0 0 451 450" fill="none" xmlns="http://www.w3.org/2000/svg">
<g clip-path="url(#clip0_1404_42)">
<path d="M151.087 249.663L151.087 256.975L118.837 256.975L118.837 249.663L151.087 249.663ZM150.618 216.694L122.993 256.975L116.399 256.975L116.399 251.6L144.243 211.475L150.618 211.475L150.618 216.694ZM147.399 211.475L147.399 218.819L116.431 218.819L116.431 211.475L147.399 211.475ZM195.267 249.663L195.267 256.975L171.048 256.975L171.048 249.663L195.267 249.663ZM174.111 211.475L174.111 256.975L164.736 256.975L164.736 211.475L174.111 211.475ZM192.111 230.006L192.111 237.131L171.048 237.131L171.048 230.006L192.111 230.006ZM195.236 211.475L195.236 218.819L171.048 218.819L171.048 211.475L195.236 211.475ZM226.228 237.006L214.541 237.006L214.478 230.569L224.291 230.569C226.02 230.569 227.436 230.35 228.541 229.913C229.645 229.454 230.468 228.798 231.009 227.944C231.572 227.069 231.853 226.006 231.853 224.756C231.853 223.34 231.582 222.194 231.041 221.319C230.52 220.444 229.697 219.808 228.572 219.413C227.468 219.017 226.041 218.819 224.291 218.819L217.791 218.819L217.791 256.975L208.416 256.975L208.416 211.475L224.291 211.475C226.936 211.475 229.301 211.725 231.384 212.225C233.489 212.725 235.27 213.486 236.728 214.506C238.186 215.527 239.301 216.819 240.072 218.381C240.843 219.923 241.228 221.756 241.228 223.881C241.228 225.756 240.801 227.486 239.947 229.069C239.114 230.652 237.791 231.944 235.978 232.944C234.186 233.944 231.843 234.496 228.947 234.6L226.228 237.006ZM225.822 256.975L211.978 256.975L215.634 249.663L225.822 249.663C227.468 249.663 228.811 249.402 229.853 248.881C230.895 248.34 231.666 247.611 232.166 246.694C232.666 245.777 232.916 244.725 232.916 243.538C232.916 242.204 232.686 241.048 232.228 240.069C231.791 239.09 231.082 238.34 230.103 237.819C229.124 237.277 227.832 237.006 226.228 237.006L217.197 237.006L217.259 230.569L228.509 230.569L230.666 233.1C233.436 233.058 235.666 233.548 237.353 234.569C239.061 235.569 240.301 236.871 241.072 238.475C241.864 240.079 242.259 241.798 242.259 243.631C242.259 246.548 241.624 249.006 240.353 251.006C239.082 252.986 237.218 254.475 234.759 255.475C232.322 256.475 229.343 256.975 225.822 256.975ZM256.971 211.475L273.939 211.475C277.419 211.475 280.408 211.996 282.908 213.038C285.429 214.079 287.366 215.621 288.721 217.663C290.075 219.704 290.752 222.215 290.752 225.194C290.752 227.631 290.335 229.725 289.502 231.475C288.689 233.204 287.533 234.652 286.033 235.819C284.554 236.965 282.814 237.881 280.814 238.569L277.846 240.131L263.096 240.131L263.033 232.819L274.002 232.819C275.648 232.819 277.012 232.527 278.096 231.944C279.179 231.361 279.991 230.548 280.533 229.506C281.096 228.465 281.377 227.256 281.377 225.881C281.377 224.423 281.106 223.163 280.564 222.1C280.023 221.038 279.2 220.225 278.096 219.663C276.991 219.1 275.606 218.819 273.939 218.819L266.346 218.819L266.346 256.975L256.971 256.975L256.971 211.475ZM282.408 256.975L272.033 236.694L281.939 236.631L292.439 256.538L292.439 256.975L282.408 256.975ZM324.151 219.256L311.776 256.975L301.807 256.975L318.713 211.475L325.057 211.475L324.151 219.256ZM334.432 256.975L322.026 219.256L321.026 211.475L327.432 211.475L344.432 256.975L334.432 256.975ZM333.869 240.038L333.869 247.381L309.838 247.381L309.838 240.038L333.869 240.038Z" fill="white"/>
<path d="M151.087 249.663L154.087 249.663L154.087 246.663L151.087 246.663L151.087 249.663ZM151.087 256.975L151.087 259.975L154.087 259.975L154.087 256.975L151.087 256.975ZM118.837 256.975L115.837 256.975L115.837 259.975L118.837 259.975L118.837 256.975ZM118.837 249.663L118.837 246.663L115.837 246.663L115.837 249.663L118.837 249.663ZM150.618 216.694L153.092 218.391L153.618 217.624L153.618 216.694L150.618 216.694ZM122.993 256.975L122.993 259.975L124.573 259.975L125.467 258.672L122.993 256.975ZM116.399 256.975L113.399 256.975L113.399 259.975L116.399 259.975L116.399 256.975ZM116.399 251.6L113.935 249.89L113.399 250.661L113.399 251.6L116.399 251.6ZM144.243 211.475L144.243 208.475L142.673 208.475L141.778 209.765L144.243 211.475ZM150.618 211.475L153.618 211.475L153.618 208.475L150.618 208.475L150.618 211.475ZM147.399 211.475L150.399 211.475L150.399 208.475L147.399 208.475L147.399 211.475ZM147.399 218.819L147.399 221.819L150.399 221.819L150.399 218.819L147.399 218.819ZM116.431 218.819L113.431 218.819L113.431 221.819L116.431 221.819L116.431 218.819ZM116.431 211.475L116.431 208.475L113.431 208.475L113.431 211.475L116.431 211.475ZM148.087 249.663L148.087 256.975L154.087 256.975L154.087 249.663L148.087 249.663ZM151.087 253.975L118.837 253.975L118.837 259.975L151.087 259.975L151.087 253.975ZM121.837 256.975L121.837 249.663L115.837 249.663L115.837 256.975L121.837 256.975ZM118.837 252.663L151.087 252.663L151.087 246.663L118.837 246.663L118.837 252.663ZM148.144 214.997L120.519 255.278L125.467 258.672L153.092 218.391L148.144 214.997ZM122.993 253.975L116.399 253.975L116.399 259.975L122.993 259.975L122.993 253.975ZM119.399 256.975L119.399 251.6L113.399 251.6L113.399 256.975L119.399 256.975ZM118.864 253.31L146.708 213.185L141.778 209.765L113.935 249.89L118.864 253.31ZM144.243 214.475L150.618 214.475L150.618 208.475L144.243 208.475L144.243 214.475ZM147.618 211.475L147.618 216.694L153.618 216.694L153.618 211.475L147.618 211.475ZM144.399 211.475L144.399 218.819L150.399 218.819L150.399 211.475L144.399 211.475ZM147.399 215.819L116.431 215.819L116.431 221.819L147.399 221.819L147.399 215.819ZM119.431 218.819L119.431 211.475L113.431 211.475L113.431 218.819L119.431 218.819ZM116.431 214.475L147.399 214.475L147.399 208.475L116.431 208.475L116.431 214.475ZM195.267 249.663L198.267 249.663L198.267 246.663L195.267 246.663L195.267 249.663ZM195.267 256.975L195.267 259.975L198.267 259.975L198.267 256.975L195.267 256.975ZM171.048 256.975L168.048 256.975L168.048 259.975L171.048 259.975L171.048 256.975ZM171.048 249.663L171.048 246.663L168.048 246.663L168.048 249.663L171.048 249.663ZM174.111 211.475L177.111 211.475L177.111 208.475L174.111 208.475L174.111 211.475ZM174.111 256.975L174.111 259.975L177.111 259.975L177.111 256.975L174.111 256.975ZM164.736 256.975L161.736 256.975L161.736 259.975L164.736 259.975L164.736 256.975ZM164.736 211.475L164.736 208.475L161.736 208.475L161.736 211.475L164.736 211.475ZM192.111 230.006L195.111 230.006L195.111 227.006L192.111 227.006L192.111 230.006ZM192.111 237.131L192.111 240.131L195.111 240.131L195.111 237.131L192.111 237.131ZM171.048 237.131L168.048 237.131L168.048 240.131L171.048 240.131L171.048 237.131ZM171.048 230.006L171.048 227.006L168.048 227.006L168.048 230.006L171.048 230.006ZM195.236 211.475L198.236 211.475L198.236 208.475L195.236 208.475L195.236 211.475ZM195.236 218.819L195.236 221.819L198.236 221.819L198.236 218.819L195.236 218.819ZM171.048 218.819L168.048 218.819L168.048 221.819L171.048 221.819L171.048 218.819ZM171.048 211.475L171.048 208.475L168.048 208.475L168.048 211.475L171.048 211.475ZM192.267 249.663L192.267 256.975L198.267 256.975L198.267 249.663L192.267 249.663ZM195.267 253.975L171.048 253.975L171.048 259.975L195.267 259.975L195.267 253.975ZM174.048 256.975L174.048 249.663L168.048 249.663L168.048 256.975L174.048 256.975ZM171.048 252.663L195.267 252.663L195.267 246.663L171.048 246.663L171.048 252.663ZM171.111 211.475L171.111 256.975L177.111 256.975L177.111 211.475L171.111 211.475ZM174.111 253.975L164.736 253.975L164.736 259.975L174.111 259.975L174.111 253.975ZM167.736 256.975L167.736 211.475L161.736 211.475L161.736 256.975L167.736 256.975ZM164.736 214.475L174.111 214.475L174.111 208.475L164.736 208.475L164.736 214.475ZM189.111 230.006L189.111 237.131L195.111 237.131L195.111 230.006L189.111 230.006ZM192.111 234.131L171.048 234.131L171.048 240.131L192.111 240.131L192.111 234.131ZM174.048 237.131L174.048 230.006L168.048 230.006L168.048 237.131L174.048 237.131ZM171.048 233.006L192.111 233.006L192.111 227.006L171.048 227.006L171.048 233.006ZM192.236 211.475L192.236 218.819L198.236 218.819L198.236 211.475L192.236 211.475ZM195.236 215.819L171.048 215.819L171.048 221.819L195.236 221.819L195.236 215.819ZM174.048 218.819L174.048 211.475L168.048 211.475L168.048 218.819L174.048 218.819ZM171.048 214.475L195.236 214.475L195.236 208.475L171.048 208.475L171.048 214.475ZM226.228 237.006L226.228 240.006L227.365 240.006L228.216 239.253L226.228 237.006ZM214.541 237.006L211.541 237.035L211.57 240.006L214.541 240.006L214.541 237.006ZM214.478 230.569L214.478 227.569L211.449 227.569L211.478 230.598L214.478 230.569ZM228.541 229.913L229.646 232.702L229.668 232.693L229.691 232.683L228.541 229.913ZM231.009 227.944L228.486 226.322L228.481 226.329L228.476 226.337L231.009 227.944ZM231.041 221.319L228.463 222.853L228.476 222.876L228.49 222.898L231.041 221.319ZM228.572 219.413L227.56 222.237L227.568 222.24L227.576 222.243L228.572 219.413ZM217.791 218.819L217.791 215.819L214.791 215.819L214.791 218.819L217.791 218.819ZM217.791 256.975L217.791 259.975L220.791 259.975L220.791 256.975L217.791 256.975ZM208.416 256.975L205.416 256.975L205.416 259.975L208.416 259.975L208.416 256.975ZM208.416 211.475L208.416 208.475L205.416 208.475L205.416 211.475L208.416 211.475ZM231.384 212.225L230.684 215.142L230.691 215.144L231.384 212.225ZM236.728 214.506L235.008 216.964L236.728 214.506ZM240.072 218.381L237.381 219.709L237.385 219.716L237.389 219.723L240.072 218.381ZM239.947 229.069L237.307 227.644L237.299 227.658L237.292 227.672L239.947 229.069ZM235.978 232.944L234.529 230.317L234.522 230.321L234.516 230.324L235.978 232.944ZM228.947 234.6L228.839 231.602L227.764 231.641L226.959 232.354L228.947 234.6ZM211.978 256.975L209.295 255.633L207.124 259.975L211.978 259.975L211.978 256.975ZM215.634 249.663L215.634 246.663L213.78 246.663L212.951 248.321L215.634 249.663ZM229.853 248.881L231.195 251.565L231.216 251.554L231.237 251.543L229.853 248.881ZM232.228 240.069L229.489 241.293L229.5 241.317L229.511 241.341L232.228 240.069ZM230.103 237.819L228.651 240.444L228.673 240.456L228.694 240.467L230.103 237.819ZM217.197 237.006L214.197 236.977L214.168 240.006L217.197 240.006L217.197 237.006ZM217.259 230.569L217.259 227.569L214.288 227.569L214.26 230.54L217.259 230.569ZM228.509 230.569L230.793 228.623L229.895 227.569L228.509 227.569L228.509 230.569ZM230.666 233.1L228.382 235.045L229.298 236.121L230.711 236.1L230.666 233.1ZM237.353 234.569L235.8 237.136L235.819 237.147L235.838 237.158L237.353 234.569ZM241.072 238.475L238.368 239.774L238.375 239.789L238.382 239.803L241.072 238.475ZM240.353 251.006L242.878 252.627L242.881 252.621L242.885 252.615L240.353 251.006ZM234.759 255.475L233.629 252.696L233.621 252.7L234.759 255.475ZM226.228 234.006L214.541 234.006L214.541 240.006L226.228 240.006L226.228 234.006ZM217.541 236.977L217.478 230.54L211.478 230.598L211.541 237.035L217.541 236.977ZM214.478 233.569L224.291 233.569L224.291 227.569L214.478 227.569L214.478 233.569ZM224.291 233.569C226.241 233.569 228.068 233.327 229.646 232.702L227.436 227.124C226.805 227.373 225.799 227.569 224.291 227.569L224.291 233.569ZM229.691 232.683C231.258 232.033 232.614 231.015 233.543 229.55L228.476 226.337C228.321 226.581 228.031 226.876 227.391 227.142L229.691 232.683ZM233.533 229.566C234.464 228.117 234.853 226.464 234.853 224.756L228.853 224.756C228.853 225.548 228.679 226.02 228.486 226.322L233.533 229.566ZM234.853 224.756C234.853 222.984 234.518 221.236 233.591 219.74L228.49 222.898C228.647 223.152 228.853 223.695 228.853 224.756L234.853 224.756ZM233.619 219.784C232.679 218.205 231.236 217.17 229.568 216.583L227.576 222.243C228.158 222.447 228.361 222.682 228.463 222.853L233.619 219.784ZM229.584 216.589C228.037 216.034 226.233 215.819 224.291 215.819L224.291 221.819C225.849 221.819 226.898 222 227.56 222.237L229.584 216.589ZM224.291 215.819L217.791 215.819L217.791 221.819L224.291 221.819L224.291 215.819ZM214.791 218.819L214.791 256.975L220.791 256.975L220.791 218.819L214.791 218.819ZM217.791 253.975L208.416 253.975L208.416 259.975L217.791 259.975L217.791 253.975ZM211.416 256.975L211.416 211.475L205.416 211.475L205.416 256.975L211.416 256.975ZM208.416 214.475L224.291 214.475L224.291 208.475L208.416 208.475L208.416 214.475ZM224.291 214.475C226.753 214.475 228.876 214.708 230.684 215.142L232.085 209.308C229.726 208.742 227.12 208.475 224.291 208.475L224.291 214.475ZM230.691 215.144C232.504 215.575 233.918 216.201 235.008 216.964L238.449 212.049C236.621 210.77 234.473 209.876 232.078 209.306L230.691 215.144ZM235.008 216.964C236.062 217.702 236.839 218.609 237.381 219.709L242.762 217.054C241.763 215.029 240.311 213.352 238.449 212.049L235.008 216.964ZM237.389 219.723C237.908 220.762 238.228 222.116 238.228 223.881L244.228 223.881C244.228 221.397 243.777 219.084 242.755 217.04L237.389 219.723ZM238.228 223.881C238.228 225.281 237.915 226.518 237.307 227.644L242.587 230.493C243.688 228.453 244.228 226.232 244.228 223.881L238.228 223.881ZM237.292 227.672C236.773 228.659 235.911 229.555 234.529 230.317L237.427 235.571C239.671 234.333 241.454 232.646 242.602 230.466L237.292 227.672ZM234.516 230.324C233.275 231.017 231.444 231.508 228.839 231.602L229.055 237.598C232.242 237.484 235.098 236.871 237.44 235.563L234.516 230.324ZM226.959 232.354L224.24 234.76L228.216 239.253L230.935 236.847L226.959 232.354ZM225.822 253.975L211.978 253.975L211.978 259.975L225.822 259.975L225.822 253.975ZM214.661 258.317L218.318 251.004L212.951 248.321L209.295 255.633L214.661 258.317ZM215.634 252.663L225.822 252.663L225.822 246.663L215.634 246.663L215.634 252.663ZM225.822 252.663C227.753 252.663 229.601 252.362 231.195 251.565L228.512 246.198C228.022 246.443 227.182 246.663 225.822 246.663L225.822 252.663ZM231.237 251.543C232.74 250.762 233.979 249.634 234.799 248.13L229.532 245.257C229.352 245.587 229.05 245.918 228.469 246.22L231.237 251.543ZM234.799 248.13C235.571 246.716 235.916 245.157 235.916 243.538L229.916 243.538C229.916 244.293 229.76 244.839 229.532 245.257L234.799 248.13ZM235.916 243.538C235.916 241.865 235.628 240.256 234.945 238.797L229.511 241.341C229.745 241.84 229.916 242.544 229.916 243.538L235.916 243.538ZM234.967 238.845C234.247 237.234 233.059 235.993 231.512 235.17L228.694 240.467C229.106 240.686 229.334 240.945 229.489 241.293L234.967 238.845ZM231.555 235.194C229.98 234.322 228.134 234.006 226.228 234.006L226.228 240.006C227.531 240.006 228.268 240.232 228.651 240.444L231.555 235.194ZM226.228 234.006L217.197 234.006L217.197 240.006L226.228 240.006L226.228 234.006ZM220.197 237.035L220.259 230.598L214.26 230.54L214.197 236.977L220.197 237.035ZM217.259 233.569L228.509 233.569L228.509 227.569L217.259 227.569L217.259 233.569ZM226.226 232.514L228.382 235.045L232.949 231.155L230.793 228.623L226.226 232.514ZM230.711 236.1C233.137 236.063 234.752 236.501 235.8 237.136L238.906 232.002C236.579 230.595 233.736 230.054 230.621 230.1L230.711 236.1ZM235.838 237.158C237.09 237.891 237.885 238.769 238.368 239.774L243.776 237.176C242.718 234.973 241.033 233.247 238.869 231.98L235.838 237.158ZM238.382 239.803C238.964 240.984 239.259 242.247 239.259 243.631L245.259 243.631C245.259 241.349 244.763 239.175 243.762 237.147L238.382 239.803ZM239.259 243.631C239.259 246.11 238.723 247.979 237.821 249.397L242.885 252.615C244.525 250.034 245.259 246.986 245.259 243.631L239.259 243.631ZM237.829 249.385C236.934 250.779 235.591 251.898 233.629 252.696L235.89 258.254C238.845 257.052 241.231 255.192 242.878 252.627L237.829 249.385ZM233.621 252.7C231.644 253.511 229.076 253.975 225.822 253.975L225.822 259.975C229.609 259.975 233 259.44 235.898 258.251L233.621 252.7ZM256.971 211.475L256.971 208.475L253.971 208.475L253.971 211.475L256.971 211.475ZM282.908 213.038L281.754 215.807L281.762 215.81L282.908 213.038ZM289.502 231.475L286.793 230.185L286.79 230.192L286.787 230.199L289.502 231.475ZM286.033 235.819L287.87 238.191L287.875 238.187L286.033 235.819ZM280.814 238.569L279.839 235.732L279.621 235.807L279.417 235.914L280.814 238.569ZM277.846 240.131L277.846 243.131L278.587 243.131L279.243 242.786L277.846 240.131ZM263.096 240.131L260.096 240.157L260.121 243.131L263.096 243.131L263.096 240.131ZM263.033 232.819L263.033 229.819L260.007 229.819L260.033 232.844L263.033 232.819ZM280.533 229.506L277.893 228.081L277.882 228.102L277.872 228.122L280.533 229.506ZM266.346 218.819L266.346 215.819L263.346 215.819L263.346 218.819L266.346 218.819ZM266.346 256.975L266.346 259.975L269.346 259.975L269.346 256.975L266.346 256.975ZM256.971 256.975L253.971 256.975L253.971 259.975L256.971 259.975L256.971 256.975ZM282.408 256.975L279.737 258.341L280.573 259.975L282.408 259.975L282.408 256.975ZM272.033 236.694L272.014 233.694L267.144 233.725L269.362 238.06L272.033 236.694ZM281.939 236.631L284.593 235.232L283.743 233.62L281.92 233.631L281.939 236.631ZM292.439 256.538L295.439 256.538L295.439 255.795L295.093 255.138L292.439 256.538ZM292.439 256.975L292.439 259.975L295.439 259.975L295.439 256.975L292.439 256.975ZM256.971 214.475L273.939 214.475L273.939 208.475L256.971 208.475L256.971 214.475ZM273.939 214.475C277.13 214.475 279.708 214.954 281.754 215.807L284.062 210.268C281.108 209.038 277.707 208.475 273.939 208.475L273.939 214.475ZM281.762 215.81C283.796 216.65 285.234 217.833 286.221 219.321L291.221 216.004C289.499 213.409 287.062 211.508 284.054 210.265L281.762 215.81ZM286.221 219.321C287.184 220.774 287.752 222.676 287.752 225.194L293.752 225.194C293.752 221.754 292.965 218.635 291.221 216.004L286.221 219.321ZM287.752 225.194C287.752 227.297 287.392 228.928 286.793 230.185L292.21 232.765C293.279 230.522 293.752 227.966 293.752 225.194L287.752 225.194ZM286.787 230.199C286.174 231.503 285.316 232.576 284.191 233.451L287.875 238.187C289.75 236.728 291.205 234.905 292.217 232.751L286.787 230.199ZM284.196 233.447C283.008 234.367 281.568 235.137 279.839 235.732L281.79 241.406C284.061 240.625 286.1 239.562 287.87 238.191L284.196 233.447ZM279.417 235.914L276.448 237.477L279.243 242.786L282.212 241.224L279.417 235.914ZM277.846 237.131L263.096 237.131L263.096 243.131L277.846 243.131L277.846 237.131ZM266.096 240.106L266.033 232.793L260.033 232.844L260.096 240.157L266.096 240.106ZM263.033 235.819L274.002 235.819L274.002 229.819L263.033 229.819L263.033 235.819ZM274.002 235.819C275.983 235.819 277.875 235.47 279.518 234.585L276.673 229.302C276.15 229.584 275.312 229.819 274.002 229.819L274.002 235.819ZM279.518 234.585C281.104 233.731 282.362 232.492 283.195 230.89L277.872 228.122C277.621 228.604 277.254 228.99 276.673 229.302L279.518 234.585ZM283.173 230.932C284.007 229.386 284.377 227.673 284.377 225.881L278.377 225.881C278.377 226.839 278.184 227.543 277.893 228.081L283.173 230.932ZM284.377 225.881C284.377 224.053 284.037 222.306 283.237 220.738L277.892 223.463C278.176 224.019 278.377 224.793 278.377 225.881L284.377 225.881ZM283.237 220.738C282.396 219.088 281.102 217.827 279.457 216.989L276.734 222.336C277.297 222.623 277.649 222.988 277.892 223.463L283.237 220.738ZM279.457 216.989C277.812 216.151 275.924 215.819 273.939 215.819L273.939 221.819C275.289 221.819 276.171 222.049 276.734 222.336L279.457 216.989ZM273.939 215.819L266.346 215.819L266.346 221.819L273.939 221.819L273.939 215.819ZM263.346 218.819L263.346 256.975L269.346 256.975L269.346 218.819L263.346 218.819ZM266.346 253.975L256.971 253.975L256.971 259.975L266.346 259.975L266.346 253.975ZM259.971 256.975L259.971 211.475L253.971 211.475L253.971 256.975L259.971 256.975ZM285.079 255.609L274.704 235.328L269.362 238.06L279.737 258.341L285.079 255.609ZM272.052 239.694L281.958 239.631L281.92 233.631L272.014 233.694L272.052 239.694ZM279.286 238.031L289.786 257.937L295.093 255.138L284.593 235.232L279.286 238.031ZM289.439 256.538L289.439 256.975L295.439 256.975L295.439 256.538L289.439 256.538ZM292.439 253.975L282.408 253.975L282.408 259.975L292.439 259.975L292.439 253.975ZM324.151 219.256L327.001 220.192L327.096 219.904L327.131 219.603L324.151 219.256ZM311.776 256.975L311.776 259.975L313.949 259.975L314.626 257.91L311.776 256.975ZM301.807 256.975L298.995 255.93L297.492 259.975L301.807 259.975L301.807 256.975ZM318.713 211.475L318.713 208.475L316.627 208.475L315.901 210.43L318.713 211.475ZM325.057 211.475L328.037 211.822L328.427 208.475L325.057 208.475L325.057 211.475ZM334.432 256.975L331.582 257.912L332.261 259.975L334.432 259.975L334.432 256.975ZM322.026 219.256L319.05 219.639L319.087 219.922L319.176 220.194L322.026 219.256ZM321.026 211.475L321.026 208.475L317.615 208.475L318.05 211.857L321.026 211.475ZM327.432 211.475L330.242 210.425L329.514 208.475L327.432 208.475L327.432 211.475ZM344.432 256.975L344.432 259.975L348.755 259.975L347.242 255.925L344.432 256.975ZM333.869 240.038L336.869 240.038L336.869 237.038L333.869 237.038L333.869 240.038ZM333.869 247.381L333.869 250.381L336.869 250.381L336.869 247.381L333.869 247.381ZM309.838 247.381L306.838 247.381L306.838 250.381L309.838 250.381L309.838 247.381ZM309.838 240.038L309.838 237.038L306.838 237.038L306.838 240.038L309.838 240.038ZM321.3 218.321L308.925 256.04L314.626 257.91L327.001 220.192L321.3 218.321ZM311.776 253.975L301.807 253.975L301.807 259.975L311.776 259.975L311.776 253.975ZM304.619 258.02L321.525 212.52L315.901 210.43L298.995 255.93L304.619 258.02ZM318.713 214.475L325.057 214.475L325.057 208.475L318.713 208.475L318.713 214.475ZM322.077 211.128L321.171 218.909L327.131 219.603L328.037 211.822L322.077 211.128ZM337.282 256.038L324.875 218.319L319.176 220.194L331.582 257.912L337.282 256.038ZM325.001 218.874L324.001 211.093L318.05 211.857L319.05 219.639L325.001 218.874ZM321.026 214.475L327.432 214.475L327.432 208.475L321.026 208.475L321.026 214.475ZM324.622 212.525L341.622 258.025L347.242 255.925L330.242 210.425L324.622 212.525ZM344.432 253.975L334.432 253.975L334.432 259.975L344.432 259.975L344.432 253.975ZM330.869 240.038L330.869 247.381L336.869 247.381L336.869 240.038L330.869 240.038ZM333.869 244.381L309.838 244.381L309.838 250.381L333.869 250.381L333.869 244.381ZM312.838 247.381L312.838 240.038L306.838 240.038L306.838 247.381L312.838 247.381ZM309.838 243.038L333.869 243.038L333.869 237.038L309.838 237.038L309.838 243.038Z" fill="black"/>
<path d="M151.087 249.663L151.087 256.975L118.837 256.975L118.837 249.663L151.087 249.663ZM150.618 216.694L122.993 256.975L116.399 256.975L116.399 251.6L144.243 211.475L150.618 211.475L150.618 216.694ZM147.399 211.475L147.399 218.819L116.431 218.819L116.431 211.475L147.399 211.475ZM195.267 249.663L195.267 256.975L171.048 256.975L171.048 249.663L195.267 249.663ZM174.111 211.475L174.111 256.975L164.736 256.975L164.736 211.475L174.111 211.475ZM192.111 230.006L192.111 237.131L171.048 237.131L171.048 230.006L192.111 230.006ZM195.236 211.475L195.236 218.819L171.048 218.819L171.048 211.475L195.236 211.475ZM226.228 237.006L214.541 237.006L214.478 230.569L224.291 230.569C226.02 230.569 227.436 230.35 228.541 229.913C229.645 229.454 230.468 228.798 231.009 227.944C231.572 227.069 231.853 226.006 231.853 224.756C231.853 223.34 231.582 222.194 231.041 221.319C230.52 220.444 229.697 219.808 228.572 219.413C227.468 219.017 226.041 218.819 224.291 218.819L217.791 218.819L217.791 256.975L208.416 256.975L208.416 211.475L224.291 211.475C226.936 211.475 229.301 211.725 231.384 212.225C233.489 212.725 235.27 213.486 236.728 214.506C238.186 215.527 239.301 216.819 240.072 218.381C240.843 219.923 241.228 221.756 241.228 223.881C241.228 225.756 240.801 227.486 239.947 229.069C239.114 230.652 237.791 231.944 235.978 232.944C234.186 233.944 231.843 234.496 228.947 234.6L226.228 237.006ZM225.822 256.975L211.978 256.975L215.634 249.663L225.822 249.663C227.468 249.663 228.811 249.402 229.853 248.881C230.895 248.34 231.666 247.611 232.166 246.694C232.666 245.777 232.916 244.725 232.916 243.538C232.916 242.204 232.686 241.048 232.228 240.069C231.791 239.09 231.082 238.34 230.103 237.819C229.124 237.277 227.832 237.006 226.228 237.006L217.197 237.006L217.259 230.569L228.509 230.569L230.666 233.1C233.436 233.058 235.666 233.548 237.353 234.569C239.061 235.569 240.301 236.871 241.072 238.475C241.864 240.079 242.259 241.798 242.259 243.631C242.259 246.548 241.624 249.006 240.353 251.006C239.082 252.986 237.218 254.475 234.759 255.475C232.322 256.475 229.343 256.975 225.822 256.975ZM256.971 211.475L273.939 211.475C277.419 211.475 280.408 211.996 282.908 213.038C285.429 214.079 287.366 215.621 288.721 217.663C290.075 219.704 290.752 222.215 290.752 225.194C290.752 227.631 290.335 229.725 289.502 231.475C288.689 233.204 287.533 234.652 286.033 235.819C284.554 236.965 282.814 237.881 280.814 238.569L277.846 240.131L263.096 240.131L263.033 232.819L274.002 232.819C275.648 232.819 277.012 232.527 278.096 231.944C279.179 231.361 279.991 230.548 280.533 229.506C281.096 228.465 281.377 227.256 281.377 225.881C281.377 224.423 281.106 223.163 280.564 222.1C280.023 221.038 279.2 220.225 278.096 219.663C276.991 219.1 275.606 218.819 273.939 218.819L266.346 218.819L266.346 256.975L256.971 256.975L256.971 211.475ZM282.408 256.975L272.033 236.694L281.939 236.631L292.439 256.538L292.439 256.975L282.408 256.975ZM324.151 219.256L311.776 256.975L301.807 256.975L318.713 211.475L325.057 211.475L324.151 219.256ZM334.432 256.975L322.026 219.256L321.026 211.475L327.432 211.475L344.432 256.975L334.432 256.975ZM333.869 240.038L333.869 247.381L309.838 247.381L309.838 240.038L333.869 240.038Z" fill="white"/>
<path d="M151.087 249.663L152.087 249.663L152.087 248.663L151.087 248.663L151.087 249.663ZM151.087 256.975L151.087 257.975L152.087 257.975L152.087 256.975L151.087 256.975ZM118.837 256.975L117.837 256.975L117.837 257.975L118.837 257.975L118.837 256.975ZM118.837 249.663L118.837 248.663L117.837 248.663L117.837 249.663L118.837 249.663ZM150.618 216.694L151.443 217.259L151.618 217.004L151.618 216.694L150.618 216.694ZM122.993 256.975L122.993 257.975L123.52 257.975L123.818 257.541L122.993 256.975ZM116.399 256.975L115.399 256.975L115.399 257.975L116.399 257.975L116.399 256.975ZM116.399 251.6L115.578 251.03L115.399 251.287L115.399 251.6L116.399 251.6ZM144.243 211.475L144.243 210.475L143.72 210.475L143.422 210.905L144.243 211.475ZM150.618 211.475L151.618 211.475L151.618 210.475L150.618 210.475L150.618 211.475ZM147.399 211.475L148.399 211.475L148.399 210.475L147.399 210.475L147.399 211.475ZM147.399 218.819L147.399 219.819L148.399 219.819L148.399 218.819L147.399 218.819ZM116.431 218.819L115.431 218.819L115.431 219.819L116.431 219.819L116.431 218.819ZM116.431 211.475L116.431 210.475L115.431 210.475L115.431 211.475L116.431 211.475ZM150.087 249.663L150.087 256.975L152.087 256.975L152.087 249.663L150.087 249.663ZM151.087 255.975L118.837 255.975L118.837 257.975L151.087 257.975L151.087 255.975ZM119.837 256.975L119.837 249.663L117.837 249.663L117.837 256.975L119.837 256.975ZM118.837 250.663L151.087 250.663L151.087 248.663L118.837 248.663L118.837 250.663ZM149.793 216.128L122.168 256.41L123.818 257.541L151.443 217.259L149.793 216.128ZM122.993 255.975L116.399 255.975L116.399 257.975L122.993 257.975L122.993 255.975ZM117.399 256.975L117.399 251.6L115.399 251.6L115.399 256.975L117.399 256.975ZM117.221 252.17L145.065 212.045L143.422 210.905L115.578 251.03L117.221 252.17ZM144.243 212.475L150.618 212.475L150.618 210.475L144.243 210.475L144.243 212.475ZM149.618 211.475L149.618 216.694L151.618 216.694L151.618 211.475L149.618 211.475ZM146.399 211.475L146.399 218.819L148.399 218.819L148.399 211.475L146.399 211.475ZM147.399 217.819L116.431 217.819L116.431 219.819L147.399 219.819L147.399 217.819ZM117.431 218.819L117.431 211.475L115.431 211.475L115.431 218.819L117.431 218.819ZM116.431 212.475L147.399 212.475L147.399 210.475L116.431 210.475L116.431 212.475ZM195.267 249.663L196.267 249.663L196.267 248.663L195.267 248.663L195.267 249.663ZM195.267 256.975L195.267 257.975L196.267 257.975L196.267 256.975L195.267 256.975ZM171.048 256.975L170.048 256.975L170.048 257.975L171.048 257.975L171.048 256.975ZM171.048 249.663L171.048 248.663L170.048 248.663L170.048 249.663L171.048 249.663ZM174.111 211.475L175.111 211.475L175.111 210.475L174.111 210.475L174.111 211.475ZM174.111 256.975L174.111 257.975L175.111 257.975L175.111 256.975L174.111 256.975ZM164.736 256.975L163.736 256.975L163.736 257.975L164.736 257.975L164.736 256.975ZM164.736 211.475L164.736 210.475L163.736 210.475L163.736 211.475L164.736 211.475ZM192.111 230.006L193.111 230.006L193.111 229.006L192.111 229.006L192.111 230.006ZM192.111 237.131L192.111 238.131L193.111 238.131L193.111 237.131L192.111 237.131ZM171.048 237.131L170.048 237.131L170.048 238.131L171.048 238.131L171.048 237.131ZM171.048 230.006L171.048 229.006L170.048 229.006L170.048 230.006L171.048 230.006ZM195.236 211.475L196.236 211.475L196.236 210.475L195.236 210.475L195.236 211.475ZM195.236 218.819L195.236 219.819L196.236 219.819L196.236 218.819L195.236 218.819ZM171.048 218.819L170.048 218.819L170.048 219.819L171.048 219.819L171.048 218.819ZM171.048 211.475L171.048 210.475L170.048 210.475L170.048 211.475L171.048 211.475ZM194.267 249.663L194.267 256.975L196.267 256.975L196.267 249.663L194.267 249.663ZM195.267 255.975L171.048 255.975L171.048 257.975L195.267 257.975L195.267 255.975ZM172.048 256.975L172.048 249.663L170.048 249.663L170.048 256.975L172.048 256.975ZM171.048 250.663L195.267 250.663L195.267 248.663L171.048 248.663L171.048 250.663ZM173.111 211.475L173.111 256.975L175.111 256.975L175.111 211.475L173.111 211.475ZM174.111 255.975L164.736 255.975L164.736 257.975L174.111 257.975L174.111 255.975ZM165.736 256.975L165.736 211.475L163.736 211.475L163.736 256.975L165.736 256.975ZM164.736 212.475L174.111 212.475L174.111 210.475L164.736 210.475L164.736 212.475ZM191.111 230.006L191.111 237.131L193.111 237.131L193.111 230.006L191.111 230.006ZM192.111 236.131L171.048 236.131L171.048 238.131L192.111 238.131L192.111 236.131ZM172.048 237.131L172.048 230.006L170.048 230.006L170.048 237.131L172.048 237.131ZM171.048 231.006L192.111 231.006L192.111 229.006L171.048 229.006L171.048 231.006ZM194.236 211.475L194.236 218.819L196.236 218.819L196.236 211.475L194.236 211.475ZM195.236 217.819L171.048 217.819L171.048 219.819L195.236 219.819L195.236 217.819ZM172.048 218.819L172.048 211.475L170.048 211.475L170.048 218.819L172.048 218.819ZM171.048 212.475L195.236 212.475L195.236 210.475L171.048 210.475L171.048 212.475ZM226.228 237.006L226.228 238.006L226.607 238.006L226.891 237.755L226.228 237.006ZM214.541 237.006L213.541 237.016L213.55 238.006L214.541 238.006L214.541 237.006ZM214.478 230.569L214.478 229.569L213.468 229.569L213.478 230.579L214.478 230.569ZM228.541 229.913L228.909 230.842L228.917 230.839L228.924 230.836L228.541 229.913ZM231.009 227.944L230.168 227.403L230.165 227.408L231.009 227.944ZM231.041 221.319L230.181 221.83L230.186 221.838L230.19 221.845L231.041 221.319ZM228.572 219.413L228.234 220.354L228.24 220.356L228.572 219.413ZM217.791 218.819L217.791 217.819L216.791 217.819L216.791 218.819L217.791 218.819ZM217.791 256.975L217.791 257.975L218.791 257.975L218.791 256.975L217.791 256.975ZM208.416 256.975L207.416 256.975L207.416 257.975L208.416 257.975L208.416 256.975ZM208.416 211.475L208.416 210.475L207.416 210.475L207.416 211.475L208.416 211.475ZM231.384 212.225L231.151 213.197L231.153 213.198L231.384 212.225ZM236.728 214.506L236.155 215.326L236.728 214.506ZM240.072 218.381L239.175 218.824L239.177 218.829L240.072 218.381ZM239.947 229.069L239.067 228.594L239.062 228.603L239.947 229.069ZM235.978 232.944L235.495 232.068L235.491 232.071L235.978 232.944ZM228.947 234.6L228.911 233.601L228.553 233.614L228.284 233.851L228.947 234.6ZM211.978 256.975L211.084 256.528L210.36 257.975L211.978 257.975L211.978 256.975ZM215.634 249.663L215.634 248.663L215.016 248.663L214.74 249.215L215.634 249.663ZM229.853 248.881L230.3 249.776L230.307 249.772L230.315 249.769L229.853 248.881ZM232.228 240.069L231.315 240.477L231.319 240.485L231.322 240.493L232.228 240.069ZM230.103 237.819L229.619 238.694L229.626 238.698L229.634 238.702L230.103 237.819ZM217.197 237.006L216.197 236.997L216.187 238.006L217.197 238.006L217.197 237.006ZM217.259 230.569L217.259 229.569L216.269 229.569L216.259 230.559L217.259 230.569ZM228.509 230.569L229.271 229.92L228.971 229.569L228.509 229.569L228.509 230.569ZM230.666 233.1L229.904 233.749L230.21 234.107L230.681 234.1L230.666 233.1ZM237.353 234.569L236.836 235.424L236.842 235.428L236.848 235.432L237.353 234.569ZM241.072 238.475L240.171 238.908L240.175 238.918L241.072 238.475ZM240.353 251.006L241.195 251.547L241.197 251.543L240.353 251.006ZM234.759 255.475L234.383 254.549L234.38 254.55L234.759 255.475ZM226.228 236.006L214.541 236.006L214.541 238.006L226.228 238.006L226.228 236.006ZM215.541 236.997L215.478 230.559L213.478 230.579L213.541 237.016L215.541 236.997ZM214.478 231.569L224.291 231.569L224.291 229.569L214.478 229.569L214.478 231.569ZM224.291 231.569C226.093 231.569 227.647 231.342 228.909 230.842L228.172 228.983C227.226 229.358 225.946 229.569 224.291 229.569L224.291 231.569ZM228.924 230.836C230.183 230.314 231.183 229.537 231.854 228.479L230.165 227.408C229.752 228.059 229.107 228.595 228.157 228.989L228.924 230.836ZM231.851 228.485C232.536 227.418 232.853 226.159 232.853 224.756L230.853 224.756C230.853 225.854 230.608 226.719 230.168 227.403L231.851 228.485ZM232.853 224.756C232.853 223.221 232.561 221.874 231.891 220.792L230.19 221.845C230.604 222.513 230.853 223.458 230.853 224.756L232.853 224.756ZM231.9 220.807C231.239 219.698 230.21 218.929 228.904 218.469L228.24 220.356C229.184 220.688 229.8 221.19 230.181 221.83L231.9 220.807ZM228.909 218.471C227.658 218.022 226.105 217.819 224.291 217.819L224.291 219.819C225.977 219.819 227.278 220.011 228.234 220.354L228.909 218.471ZM224.291 217.819L217.791 217.819L217.791 219.819L224.291 219.819L224.291 217.819ZM216.791 218.819L216.791 256.975L218.791 256.975L218.791 218.819L216.791 218.819ZM217.791 255.975L208.416 255.975L208.416 257.975L217.791 257.975L217.791 255.975ZM209.416 256.975L209.416 211.475L207.416 211.475L207.416 256.975L209.416 256.975ZM208.416 212.475L224.291 212.475L224.291 210.475L208.416 210.475L208.416 212.475ZM224.291 212.475C226.875 212.475 229.16 212.72 231.151 213.197L231.618 211.253C229.443 210.731 226.998 210.475 224.291 210.475L224.291 212.475ZM231.153 213.198C233.16 213.675 234.819 214.391 236.155 215.326L237.302 213.687C235.72 212.58 233.817 211.775 231.616 211.252L231.153 213.198ZM236.155 215.326C237.478 216.252 238.48 217.415 239.175 218.824L240.969 217.939C240.122 216.222 238.895 214.802 237.302 213.687L236.155 215.326ZM239.177 218.829C239.865 220.203 240.228 221.876 240.228 223.881L242.228 223.881C242.228 221.637 241.821 219.643 240.966 217.934L239.177 218.829ZM240.228 223.881C240.228 225.598 239.839 227.163 239.067 228.594L240.827 229.544C241.763 227.808 242.228 225.915 242.228 223.881L240.228 223.881ZM239.062 228.603C238.333 229.988 237.164 231.147 235.495 232.068L236.461 233.819C238.417 232.74 239.894 231.317 240.832 229.535L239.062 228.603ZM235.491 232.071C233.883 232.968 231.71 233.5 228.911 233.601L228.983 235.599C231.976 235.492 234.49 234.919 236.466 233.817L235.491 232.071ZM228.284 233.851L225.565 236.258L226.891 237.755L229.61 235.349L228.284 233.851ZM225.822 255.975L211.978 255.975L211.978 257.975L225.822 257.975L225.822 255.975ZM212.873 257.422L216.529 250.11L214.74 249.215L211.084 256.528L212.873 257.422ZM215.634 250.663L225.822 250.663L225.822 248.663L215.634 248.663L215.634 250.663ZM225.822 250.663C227.563 250.663 229.075 250.389 230.3 249.776L229.406 247.987C228.548 248.416 227.373 248.663 225.822 248.663L225.822 250.663ZM230.315 249.769C231.51 249.147 232.437 248.285 233.044 247.173L231.288 246.215C230.895 246.936 230.28 247.532 229.392 247.994L230.315 249.769ZM233.044 247.173C233.634 246.09 233.916 244.869 233.916 243.538L231.916 243.538C231.916 244.581 231.697 245.464 231.288 246.215L233.044 247.173ZM233.916 243.538C233.916 242.091 233.667 240.784 233.134 239.645L231.322 240.493C231.706 241.312 231.916 242.317 231.916 243.538L233.916 243.538ZM233.141 239.661C232.61 238.471 231.741 237.558 230.573 236.936L229.634 238.702C230.423 239.122 230.972 239.708 231.315 240.477L233.141 239.661ZM230.587 236.944C229.409 236.292 227.933 236.006 226.228 236.006L226.228 238.006C227.732 238.006 228.839 238.262 229.619 238.694L230.587 236.944ZM226.228 236.006L217.197 236.006L217.197 238.006L226.228 238.006L226.228 236.006ZM218.197 237.016L218.259 230.579L216.259 230.559L216.197 236.997L218.197 237.016ZM217.259 231.569L228.509 231.569L228.509 229.569L217.259 229.569L217.259 231.569ZM227.748 231.217L229.904 233.749L231.427 232.452L229.271 229.92L227.748 231.217ZM230.681 234.1C233.337 234.06 235.361 234.532 236.836 235.424L237.871 233.713C235.97 232.564 233.536 232.057 230.651 232.1L230.681 234.1ZM236.848 235.432C238.404 236.343 239.496 237.503 240.171 238.908L241.973 238.042C241.107 236.238 239.719 234.795 237.858 233.706L236.848 235.432ZM240.175 238.918C240.897 240.381 241.259 241.948 241.259 243.631L243.259 243.631C243.259 241.648 242.83 239.778 241.969 238.033L240.175 238.918ZM241.259 243.631C241.259 246.402 240.657 248.664 239.509 250.47L241.197 251.543C242.591 249.349 243.259 246.694 243.259 243.631L241.259 243.631ZM239.512 250.466C238.366 252.25 236.675 253.616 234.383 254.549L235.136 256.401C237.76 255.334 239.798 253.721 241.195 251.547L239.512 250.466ZM234.38 254.55C232.096 255.487 229.254 255.975 225.822 255.975L225.822 257.975C229.432 257.975 232.548 257.463 235.139 256.4L234.38 254.55ZM256.971 211.475L256.971 210.475L255.971 210.475L255.971 211.475L256.971 211.475ZM282.908 213.038L282.524 213.961L282.526 213.962L282.908 213.038ZM289.502 231.475L288.599 231.045L288.597 231.05L289.502 231.475ZM286.033 235.819L286.646 236.609L286.647 236.608L286.033 235.819ZM280.814 238.569L280.489 237.623L280.417 237.648L280.349 237.684L280.814 238.569ZM277.846 240.131L277.846 241.131L278.093 241.131L278.311 241.016L277.846 240.131ZM263.096 240.131L262.096 240.14L262.104 241.131L263.096 241.131L263.096 240.131ZM263.033 232.819L263.033 231.819L262.025 231.819L262.033 232.827L263.033 232.819ZM280.533 229.506L279.653 229.031L279.65 229.038L279.646 229.045L280.533 229.506ZM266.346 218.819L266.346 217.819L265.346 217.819L265.346 218.819L266.346 218.819ZM266.346 256.975L266.346 257.975L267.346 257.975L267.346 256.975L266.346 256.975ZM256.971 256.975L255.971 256.975L255.971 257.975L256.971 257.975L256.971 256.975ZM282.408 256.975L281.518 257.431L281.796 257.975L282.408 257.975L282.408 256.975ZM272.033 236.694L272.027 235.694L270.404 235.704L271.143 237.149L272.033 236.694ZM281.939 236.631L282.824 236.165L282.541 235.628L281.933 235.631L281.939 236.631ZM292.439 256.538L293.439 256.538L293.439 256.29L293.324 256.071L292.439 256.538ZM292.439 256.975L292.439 257.975L293.439 257.975L293.439 256.975L292.439 256.975ZM256.971 212.475L273.939 212.475L273.939 210.475L256.971 210.475L256.971 212.475ZM273.939 212.475C277.323 212.475 280.175 212.982 282.524 213.961L283.293 212.115C280.642 211.01 277.515 210.475 273.939 210.475L273.939 212.475ZM282.526 213.962C284.885 214.936 286.656 216.358 287.887 218.215L289.554 217.11C288.077 214.884 285.973 213.222 283.29 212.113L282.526 213.962ZM287.887 218.215C289.111 220.061 289.752 222.368 289.752 225.194L291.752 225.194C291.752 222.061 291.038 219.348 289.554 217.11L287.887 218.215ZM289.752 225.194C289.752 227.52 289.354 229.459 288.599 231.045L290.405 231.905C291.316 229.991 291.752 227.743 291.752 225.194L289.752 225.194ZM288.597 231.05C287.851 232.637 286.794 233.96 285.419 235.029L286.647 236.608C288.272 235.344 289.528 233.771 290.407 231.9L288.597 231.05ZM285.421 235.028C284.039 236.099 282.399 236.967 280.489 237.623L281.139 239.515C283.23 238.796 285.069 237.83 286.646 236.609L285.421 235.028ZM280.349 237.684L277.38 239.246L278.311 241.016L281.28 239.454L280.349 237.684ZM277.846 239.131L263.096 239.131L263.096 241.131L277.846 241.131L277.846 239.131ZM264.096 240.123L264.033 232.81L262.033 232.827L262.096 240.14L264.096 240.123ZM263.033 233.819L274.002 233.819L274.002 231.819L263.033 231.819L263.033 233.819ZM274.002 233.819C275.76 233.819 277.3 233.508 278.57 232.824L277.622 231.063C276.725 231.546 275.536 231.819 274.002 231.819L274.002 233.819ZM278.57 232.824C279.821 232.151 280.782 231.196 281.42 229.968L279.646 229.045C279.201 229.9 278.537 230.57 277.622 231.063L278.57 232.824ZM281.413 229.981C282.066 228.772 282.377 227.395 282.377 225.881L280.377 225.881C280.377 227.117 280.125 228.157 279.653 229.031L281.413 229.981ZM282.377 225.881C282.377 224.3 282.083 222.877 281.455 221.646L279.674 222.554C280.129 223.448 280.377 224.546 280.377 225.881L282.377 225.881ZM281.455 221.646C280.814 220.388 279.834 219.426 278.55 218.772L277.642 220.554C278.566 221.024 279.232 221.688 279.674 222.554L281.455 221.646ZM278.55 218.772C277.265 218.117 275.712 217.819 273.939 217.819L273.939 219.819C275.5 219.819 276.718 220.083 277.642 220.554L278.55 218.772ZM273.939 217.819L266.346 217.819L266.346 219.819L273.939 219.819L273.939 217.819ZM265.346 218.819L265.346 256.975L267.346 256.975L267.346 218.819L265.346 218.819ZM266.346 255.975L256.971 255.975L256.971 257.975L266.346 257.975L266.346 255.975ZM257.971 256.975L257.971 211.475L255.971 211.475L255.971 256.975L257.971 256.975ZM283.298 256.52L272.923 236.238L271.143 237.149L281.518 257.431L283.298 256.52ZM272.039 237.694L281.946 237.631L281.933 235.631L272.027 235.694L272.039 237.694ZM281.055 237.098L291.555 257.004L293.324 256.071L282.824 236.165L281.055 237.098ZM291.439 256.538L291.439 256.975L293.439 256.975L293.439 256.538L291.439 256.538ZM292.439 255.975L282.408 255.975L282.408 257.975L292.439 257.975L292.439 255.975ZM324.151 219.256L325.101 219.568L325.132 219.472L325.144 219.372L324.151 219.256ZM311.776 256.975L311.776 257.975L312.5 257.975L312.726 257.287L311.776 256.975ZM301.807 256.975L300.87 256.627L300.369 257.975L301.807 257.975L301.807 256.975ZM318.713 211.475L318.713 210.475L318.018 210.475L317.776 211.127L318.713 211.475ZM325.057 211.475L326.05 211.591L326.18 210.475L325.057 210.475L325.057 211.475ZM334.432 256.975L333.482 257.288L333.708 257.975L334.432 257.975L334.432 256.975ZM322.026 219.256L321.034 219.384L321.046 219.478L321.076 219.569L322.026 219.256ZM321.026 211.475L321.026 210.475L319.889 210.475L320.034 211.603L321.026 211.475ZM327.432 211.475L328.369 211.125L328.126 210.475L327.432 210.475L327.432 211.475ZM344.432 256.975L344.432 257.975L345.873 257.975L345.369 256.625L344.432 256.975ZM333.869 240.038L334.869 240.038L334.869 239.038L333.869 239.038L333.869 240.038ZM333.869 247.381L333.869 248.381L334.869 248.381L334.869 247.381L333.869 247.381ZM309.838 247.381L308.838 247.381L308.838 248.381L309.838 248.381L309.838 247.381ZM309.838 240.038L309.838 239.038L308.838 239.038L308.838 240.038L309.838 240.038ZM323.201 218.945L310.825 256.663L312.726 257.287L325.101 219.568L323.201 218.945ZM311.776 255.975L301.807 255.975L301.807 257.975L311.776 257.975L311.776 255.975ZM302.744 257.323L319.651 211.823L317.776 211.127L300.87 256.627L302.744 257.323ZM318.713 212.475L325.057 212.475L325.057 210.475L318.713 210.475L318.713 212.475ZM324.064 211.359L323.157 219.141L325.144 219.372L326.05 211.591L324.064 211.359ZM335.382 256.663L322.976 218.944L321.076 219.569L333.482 257.288L335.382 256.663ZM323.018 219.129L322.018 211.348L320.034 211.603L321.034 219.384L323.018 219.129ZM321.026 212.475L327.432 212.475L327.432 210.475L321.026 210.475L321.026 212.475ZM326.495 211.825L343.495 257.325L345.369 256.625L328.369 211.125L326.495 211.825ZM344.432 255.975L334.432 255.975L334.432 257.975L344.432 257.975L344.432 255.975ZM332.869 240.038L332.869 247.381L334.869 247.381L334.869 240.038L332.869 240.038ZM333.869 246.381L309.838 246.381L309.838 248.381L333.869 248.381L333.869 246.381ZM310.838 247.381L310.838 240.038L308.838 240.038L308.838 247.381L310.838 247.381ZM309.838 241.038L333.869 241.038L333.869 239.038L309.838 239.038L309.838 241.038Z" fill="white"/>
<path d="M334.391 96.2827L320.094 113.041L316.353 109.851L330.65 93.0925L334.391 96.2827ZM339.491 100.631L337.006 103.543L323.17 91.7444L325.654 88.8323L339.491 100.631Z" fill="white"/>
<path d="M349.709 127.106L348.963 127.748C347.695 128.841 346.405 129.646 345.093 130.164C343.788 130.689 342.504 130.937 341.24 130.908C339.983 130.886 338.785 130.6 337.645 130.051C336.52 129.502 335.5 128.697 334.585 127.635C333.67 126.574 333.021 125.442 332.639 124.241C332.264 123.033 332.152 121.798 332.303 120.537C332.46 119.283 332.892 118.046 333.598 116.825C334.304 115.605 335.291 114.448 336.56 113.355L337.305 112.713C338.573 111.621 339.863 110.815 341.175 110.298C342.494 109.773 343.782 109.522 345.039 109.544C346.303 109.574 347.501 109.866 348.632 110.422C349.772 110.972 350.799 111.777 351.714 112.839C352.629 113.901 353.274 115.036 353.649 116.244C354.032 117.445 354.141 118.668 353.977 119.915C353.819 121.169 353.384 122.409 352.67 123.636C351.964 124.857 350.977 126.013 349.709 127.106ZM345.714 123.978L346.482 123.316C347.331 122.586 348.014 121.864 348.532 121.152C349.057 120.433 349.416 119.737 349.609 119.065C349.802 118.393 349.825 117.747 349.678 117.129C349.539 116.503 349.236 115.919 348.768 115.377C348.281 114.812 347.742 114.418 347.15 114.195C346.566 113.966 345.928 113.897 345.234 113.988C344.548 114.088 343.81 114.344 343.021 114.757C342.246 115.172 341.435 115.744 340.587 116.475L339.819 117.137C338.978 117.861 338.292 118.579 337.759 119.29C337.242 120.002 336.882 120.698 336.682 121.377C336.481 122.056 336.447 122.704 336.58 123.321C336.719 123.947 337.033 124.542 337.52 125.107C337.987 125.65 338.517 126.032 339.108 126.255C339.706 126.485 340.355 126.551 341.057 126.453C341.758 126.355 342.495 126.099 343.27 125.684C344.059 125.271 344.874 124.702 345.714 123.978Z" fill="white"/>
<path d="M374.502 166.79L370.996 168.289L366.511 157.802L370.017 156.303L374.502 166.79ZM378.782 154.249L358.526 162.911L356.587 158.377L376.842 149.715L378.782 154.249ZM383.993 166.433L363.737 175.095L361.804 170.575L382.059 161.912L383.993 166.433Z" fill="white"/>
<path d="M385.681 185.885L366.993 184.728L365.707 179.624L389.061 182.148L389.874 185.375L385.681 185.885ZM369.535 194.821L385.441 184.932L389.361 183.336L390.185 186.607L370.821 199.925L369.535 194.821ZM377.428 192.582L373.731 193.514L370.926 182.38L374.624 181.449L377.428 192.582Z" fill="white"/>
<path d="M377.326 211.831L394.853 215.098L395.369 220.565L372.727 215.122L372.39 211.552L377.326 211.831ZM393.973 205.776L377.365 212.252L372.572 213.48L372.231 209.865L393.459 200.324L393.973 205.776Z" fill="white"/>
<path d="M376.692 242.767L372.884 242.584L373.448 230.874L377.257 231.057L376.692 242.767ZM395.372 233.608L373.367 232.551L373.605 227.625L395.609 228.682L395.372 233.608ZM386.105 241.705L382.417 241.527L382.909 231.328L386.596 231.505L386.105 241.705ZM394.887 243.656L391.064 243.473L391.629 231.747L395.452 231.931L394.887 243.656Z" fill="white"/>
<path d="M387.773 280.411L377.097 281.268L384.933 288.585L383.186 293.615L372.242 282.241L364.724 279.631L366.367 274.901L373.885 277.511L389.531 275.352L387.773 280.411Z" fill="white"/>
<path d="M362.35 312.172L361.483 311.709C360.006 310.921 358.789 310.008 357.833 308.972C356.873 307.945 356.178 306.837 355.75 305.648C355.317 304.468 355.151 303.247 355.252 301.987C355.358 300.74 355.741 299.498 356.401 298.261C357.062 297.025 357.883 296.011 358.866 295.221C359.857 294.435 360.968 293.885 362.2 293.571C363.426 293.265 364.736 293.221 366.129 293.439C367.522 293.656 368.957 294.159 370.434 294.948L371.302 295.411C372.779 296.199 373.995 297.111 374.951 298.147C375.916 299.188 376.615 300.299 377.048 301.479C377.477 302.668 377.636 303.89 377.525 305.146C377.424 306.407 377.043 307.655 376.382 308.892C375.722 310.129 374.896 311.14 373.905 311.925C372.922 312.716 371.82 313.259 370.598 313.556C369.372 313.862 368.057 313.903 366.655 313.681C365.262 313.463 363.827 312.96 362.35 312.172ZM363.827 307.318L364.722 307.796C365.709 308.323 366.629 308.699 367.48 308.925C368.34 309.156 369.119 309.239 369.815 309.177C370.512 309.114 371.122 308.903 371.647 308.542C372.18 308.186 372.615 307.693 372.952 307.061C373.304 306.403 373.477 305.758 373.471 305.126C373.474 304.499 373.308 303.879 372.973 303.265C372.632 302.66 372.127 302.065 371.457 301.479C370.791 300.906 369.964 300.356 368.977 299.829L368.082 299.351C367.104 298.829 366.186 298.448 365.331 298.209C364.48 297.983 363.701 297.899 362.996 297.957C362.29 298.015 361.673 298.217 361.145 298.564C360.612 298.92 360.17 299.427 359.818 300.085C359.481 300.717 359.315 301.348 359.321 301.98C359.321 302.621 359.494 303.25 359.838 303.869C360.183 304.487 360.688 305.082 361.354 305.655C362.024 306.242 362.849 306.796 363.827 307.318Z" fill="white"/>
<path d="M358.868 335.805L355.889 339.736L344.36 331.004C342.993 329.968 342.063 328.808 341.569 327.523C341.069 326.246 340.968 324.917 341.268 323.537C341.567 322.157 342.225 320.795 343.242 319.453C344.266 318.102 345.405 317.092 346.659 316.422C347.907 315.761 349.219 315.49 350.597 315.609C351.968 315.737 353.337 316.318 354.704 317.353L366.233 326.085L363.245 330.029L351.716 321.296C350.96 320.724 350.256 320.368 349.603 320.227C348.952 320.101 348.349 320.17 347.795 320.434C347.249 320.703 346.744 321.144 346.282 321.755C345.819 322.366 345.534 322.966 345.428 323.557C345.325 324.161 345.428 324.752 345.737 325.328C346.049 325.919 346.583 326.5 347.339 327.072L358.868 335.805Z" fill="white"/>
<path d="M349.622 347.282L343.541 353.16C342.33 354.331 341.106 355.162 339.871 355.655C338.629 356.155 337.424 356.281 336.259 356.033C335.093 355.785 334.005 355.139 332.996 354.095C332.155 353.225 331.581 352.349 331.275 351.467C330.969 350.584 330.88 349.695 331.01 348.798C331.132 347.909 331.415 347.011 331.858 346.106L332.401 344.361L337.579 339.355L340.262 342.086L336.411 345.808C335.881 346.32 335.534 346.838 335.368 347.363C335.202 347.888 335.197 348.405 335.352 348.914C335.507 349.437 335.809 349.931 336.258 350.395C336.721 350.873 337.211 351.199 337.729 351.372C338.247 351.545 338.771 351.55 339.301 351.388C339.832 351.24 340.358 350.913 340.88 350.408L343.415 347.958L330.764 334.876L334.311 331.448L349.622 347.282ZM325.543 339.923L335.904 343.521L332.172 347.149L321.904 343.756L321.746 343.593L325.543 339.923Z" fill="white"/>
<path d="M277.175 383.25L276.798 382.342C276.157 380.795 275.796 379.318 275.715 377.911C275.624 376.508 275.79 375.21 276.214 374.019C276.628 372.832 277.274 371.784 278.153 370.874C279.025 369.977 280.11 369.26 281.405 368.723C282.7 368.186 283.978 367.923 285.239 367.935C286.503 367.957 287.711 368.237 288.863 368.775C290.005 369.316 291.045 370.113 291.983 371.165C292.922 372.217 293.712 373.516 294.353 375.062L294.73 375.971C295.371 377.517 295.732 378.994 295.814 380.401C295.899 381.818 295.734 383.12 295.32 384.307C294.897 385.498 294.244 386.544 293.362 387.444C292.483 388.354 291.397 389.078 290.102 389.615C288.806 390.152 287.526 390.41 286.262 390.388C285.001 390.376 283.804 390.097 282.671 389.552C281.529 389.01 280.487 388.209 279.545 387.147C278.606 386.095 277.816 384.796 277.175 383.25ZM281.397 380.435L281.785 381.371C282.214 382.405 282.686 383.279 283.2 383.994C283.719 384.718 284.267 385.276 284.845 385.67C285.424 386.063 286.03 386.287 286.663 386.341C287.301 386.404 287.951 386.298 288.612 386.024C289.302 385.738 289.845 385.349 290.241 384.857C290.642 384.375 290.907 383.79 291.037 383.103C291.158 382.419 291.145 381.638 290.999 380.76C290.848 379.895 290.558 378.945 290.129 377.911L289.741 376.975C289.316 375.95 288.849 375.074 288.34 374.346C287.825 373.632 287.277 373.073 286.695 372.67C286.113 372.268 285.507 372.033 284.879 371.966C284.241 371.903 283.578 372.014 282.888 372.3C282.227 372.574 281.697 372.957 281.301 373.449C280.895 373.945 280.629 374.541 280.503 375.238C280.377 375.934 280.389 376.715 280.541 377.58C280.686 378.459 280.972 379.41 281.397 380.435Z" fill="white"/>
<path d="M262.456 378.879L262.333 398.644L259.866 399.19L258.375 397.072L258.7 376.89L261.403 376.292L262.456 378.879ZM268.287 397.327L260.516 379.215L260.561 376.479L263.634 375.799L273.059 396.271L268.287 397.327ZM251.674 381.28L252.287 400.866L247.53 401.919L247.442 379.381L250.486 378.708L251.674 381.28ZM258.256 399.546L249.728 381.586L249.658 378.891L252.347 378.296L261.23 396.456L260.723 399L258.256 399.546Z" fill="white"/>
<path d="M221.277 403.787L220.327 381.783L225.24 381.57L234.167 395.432L233.554 381.21L238.481 380.997L239.431 403.002L234.503 403.215L225.56 389.354L226.174 403.575L221.277 403.787Z" fill="white"/>
<path d="M179.488 382.061C179.395 382.422 179.366 382.758 179.401 383.069C179.433 383.39 179.559 383.708 179.78 384.025C180 384.342 180.338 384.689 180.793 385.067C181.245 385.454 181.858 385.887 182.63 386.366C183.507 386.925 184.33 387.511 185.099 388.125C185.856 388.747 186.503 389.408 187.042 390.108C187.58 390.809 187.955 391.561 188.164 392.365C188.365 393.166 188.344 394.035 188.103 394.973C187.869 395.881 187.458 396.65 186.869 397.28C186.28 397.91 185.558 398.39 184.702 398.722C183.843 399.064 182.891 399.246 181.843 399.269C180.794 399.301 179.683 399.167 178.51 398.866C176.947 398.464 175.646 397.833 174.607 396.973C173.556 396.119 172.826 395.109 172.418 393.942C172.008 392.785 171.97 391.552 172.307 390.243L177.055 391.463C176.907 392.039 176.898 392.579 177.029 393.081C177.148 393.59 177.419 394.035 177.843 394.414C178.256 394.791 178.824 395.073 179.547 395.258C180.25 395.439 180.869 395.483 181.403 395.391C181.925 395.307 182.354 395.115 182.691 394.816C183.019 394.515 183.238 394.15 183.348 393.72C183.436 393.378 183.428 393.043 183.325 392.715C183.21 392.393 183.013 392.067 182.734 391.735C182.442 391.41 182.07 391.075 181.618 390.73C181.165 390.384 180.636 390.03 180.032 389.666C178.982 389.011 178.074 388.351 177.308 387.686C176.532 387.018 175.912 386.328 175.45 385.615C174.987 384.903 174.695 384.156 174.573 383.375C174.441 382.591 174.49 381.755 174.718 380.866C174.962 379.919 175.363 379.127 175.923 378.489C176.473 377.85 177.161 377.36 177.988 377.021C178.802 376.688 179.722 376.513 180.747 376.496C181.772 376.478 182.876 376.621 184.058 376.924C185.133 377.2 186.157 377.609 187.132 378.151C188.105 378.703 188.942 379.376 189.644 380.171C190.336 380.963 190.821 381.869 191.101 382.888C191.368 383.915 191.343 385.044 191.027 386.274L186.25 385.047C186.416 384.402 186.463 383.832 186.393 383.335C186.321 382.847 186.149 382.423 185.877 382.062C185.596 381.698 185.221 381.393 184.753 381.148C184.285 380.903 183.743 380.701 183.128 380.543C182.414 380.36 181.813 380.31 181.323 380.392C180.821 380.482 180.417 380.675 180.112 380.971C179.807 381.268 179.599 381.631 179.488 382.061Z" fill="white"/>
<path d="M152.572 389.904L161.126 369.606L165.657 371.514L157.103 391.812L152.572 389.904ZM146.395 387.303L147.881 383.775L164.641 390.834L163.154 394.361L146.395 387.303Z" fill="white"/>
<path d="M135.821 381.862L137.209 371.244L128.417 377.383L123.861 374.626L137.269 366.294L141.39 359.486L145.675 362.078L141.554 368.886L140.403 384.635L135.821 381.862Z" fill="white"/>
<path d="M117.649 346.967L120.044 344.001L128.697 350.985L126.301 353.951L117.649 346.967ZM113.55 367.068L127.39 349.93L131.227 353.028L117.388 370.166L113.55 367.068Z" fill="white"/>
<path d="M103.195 332.634L105.956 330.005L114.042 338.496L111.28 341.124L103.195 332.634ZM96.9277 352.468L112.884 337.28L116.284 340.851L100.329 356.04L96.9277 352.468ZM97.4656 340.177L100.14 337.631L107.181 345.026L104.507 347.571L97.4656 340.177ZM89.9902 345.183L92.7627 342.544L100.858 351.045L98.0856 353.684L89.9902 345.183Z" fill="white"/>
<path d="M67.8317 313.82L87.0825 303.109L89.4733 307.404L70.2225 318.116L67.8317 313.82Z" fill="white"/>
<path d="M73.7175 288.595C73.3727 288.738 73.0865 288.916 72.8588 289.131C72.6217 289.349 72.4428 289.642 72.3219 290.009C72.2009 290.375 72.1264 290.854 72.0982 291.444C72.0607 292.038 72.0822 292.788 72.1629 293.694C72.2433 294.73 72.2691 295.74 72.2402 296.724C72.1981 297.702 72.0587 298.617 71.8221 299.468C71.5855 300.32 71.2091 301.071 70.6927 301.721C70.1725 302.363 69.4651 302.869 68.5706 303.24C67.7041 303.599 66.8422 303.733 65.9849 303.641C65.1277 303.549 64.3093 303.26 63.5295 302.776C62.7405 302.295 62.0224 301.643 61.3752 300.82C60.7186 300 60.1586 299.031 59.695 297.914C59.0769 296.423 58.7997 295.004 58.8634 293.657C58.9139 292.304 59.283 291.114 59.9707 290.086C60.6491 289.063 61.6126 288.292 62.8612 287.774L64.7387 292.301C64.1889 292.529 63.7527 292.847 63.43 293.253C63.0941 293.655 62.9016 294.138 62.8524 294.705C62.7995 295.262 62.9159 295.885 63.2018 296.574C63.4799 297.245 63.8162 297.766 64.2104 298.137C64.5915 298.503 65.0028 298.731 65.4441 298.821C65.8816 298.902 66.3053 298.857 66.7153 298.687C67.0414 298.552 67.3048 298.344 67.5055 298.065C67.693 297.78 67.8356 297.426 67.9333 297.003C68.0179 296.575 68.0622 296.076 68.0663 295.507C68.0705 294.937 68.0363 294.302 67.9638 293.601C67.8566 292.368 67.8388 291.245 67.9104 290.233C67.9781 289.211 68.1578 288.302 68.4494 287.504C68.741 286.706 69.1624 286.024 69.7135 285.457C70.2608 284.88 70.9584 284.417 71.8063 284.065C72.7101 283.69 73.5848 283.535 74.4305 283.599C75.2722 283.654 76.0772 283.91 76.8453 284.366C77.6003 284.818 78.2928 285.447 78.923 286.256C79.5531 287.065 80.1019 288.033 80.5694 289.16C80.9943 290.184 81.283 291.249 81.4355 292.354C81.5786 293.463 81.5434 294.537 81.3297 295.575C81.1122 296.604 80.6799 297.537 80.0329 298.373C79.3727 299.203 78.4555 299.862 77.2815 300.349L75.3924 295.793C76.0074 295.538 76.4925 295.233 76.8477 294.879C77.1936 294.528 77.4294 294.135 77.5551 293.701C77.6769 293.258 77.6952 292.775 77.61 292.254C77.5248 291.732 77.3605 291.178 77.1171 290.591C76.8351 289.911 76.514 289.4 76.1538 289.058C75.7805 288.711 75.3836 288.504 74.9631 288.438C74.5427 288.373 74.1275 288.425 73.7175 288.595Z" fill="white"/>
<path d="M46.8105 247.001L68.719 244.691L69.2342 249.58L47.3257 251.891L46.8105 247.001ZM46.1082 240.337L49.9151 239.936L51.8206 258.018L48.0137 258.42L46.1082 240.337Z" fill="white"/>
<path d="M56.8453 215.074L57.8278 215.117C59.5005 215.191 60.9917 215.49 62.3012 216.012C63.6111 216.525 64.7158 217.225 65.6153 218.113C66.5152 218.991 67.1913 220.02 67.6435 221.201C68.0861 222.371 68.2762 223.657 68.2139 225.057C68.1515 226.458 67.8476 227.726 67.3022 228.863C66.7468 229.999 65.9814 230.975 65.0061 231.79C64.0312 232.594 62.8684 233.199 61.5176 233.603C60.1668 234.008 58.6551 234.173 56.9823 234.098L55.9998 234.055C54.327 233.981 52.8359 233.682 51.5264 233.16C50.2068 232.637 49.0971 231.936 48.1972 231.059C47.2977 230.171 46.6269 229.137 46.1847 227.956C45.7325 226.775 45.5376 225.484 45.6 224.084C45.6623 222.683 45.9713 221.415 46.5267 220.279C47.0721 219.142 47.832 218.176 48.8064 217.382C49.7812 216.577 50.9491 215.973 52.3099 215.569C53.6607 215.164 55.1725 214.999 56.8453 215.074ZM57.6063 220.089L56.5936 220.044C55.475 219.995 54.483 220.052 53.6175 220.215C52.7419 220.378 52.0034 220.638 51.4019 220.995C50.8003 221.352 50.3409 221.806 50.0235 222.357C49.6961 222.908 49.5165 223.541 49.4846 224.256C49.4514 225.002 49.5736 225.658 49.8512 226.226C50.1188 226.793 50.5362 227.281 51.1037 227.69C51.6715 228.088 52.3843 228.408 53.2419 228.648C54.0899 228.877 55.0732 229.017 56.1917 229.066L57.2044 229.111C58.3129 229.161 59.3047 229.109 60.1798 228.956C61.0453 228.792 61.7839 228.532 62.3955 228.176C63.0071 227.819 63.4764 227.371 63.8034 226.83C64.1308 226.279 64.3111 225.631 64.3443 224.886C64.3762 224.17 64.2533 223.529 63.9757 222.961C63.6985 222.384 63.2712 221.89 62.6937 221.481C62.1162 221.072 61.4035 220.752 60.5555 220.523C59.6978 220.283 58.7148 220.138 57.6063 220.089Z" fill="white"/>
<path d="M67.3882 175.503L65.4507 180.819L62.3413 179.719L63.942 175.327C64.2252 174.55 64.3601 173.885 64.3467 173.333C64.3367 172.771 64.1931 172.311 63.9159 171.952C63.6292 171.59 63.2157 171.311 62.6755 171.114C62.0595 170.89 61.5205 170.822 61.0585 170.912C60.5965 171.001 60.1905 171.261 59.8403 171.692C59.4841 172.109 59.1661 172.702 58.8864 173.469L57.9021 176.17L75.0037 182.399L73.3149 187.032L52.6167 179.494L55.2898 172.16C55.7422 170.918 56.26 169.851 56.8432 168.958C57.4263 168.065 58.0792 167.363 58.8017 166.854C59.5277 166.334 60.3117 166.024 61.1537 165.923C61.9957 165.822 62.9001 165.947 63.8668 166.299C64.7102 166.607 65.4278 167.083 66.0194 167.727C66.6144 168.363 66.9892 169.175 67.1436 170.165C67.2981 171.156 67.1421 172.349 66.6758 173.746L67.3882 175.503ZM76.2626 178.945L73.9624 185.256L70.9914 182.274L72.6802 177.64C72.9392 176.929 73.0361 176.31 72.971 175.782C72.9059 175.253 72.717 174.814 72.4044 174.464C72.0918 174.114 71.6939 173.851 71.2106 173.675C70.6419 173.468 70.1128 173.388 69.6233 173.435C69.1372 173.473 68.7045 173.659 68.3251 173.993C67.9491 174.318 67.6368 174.821 67.3882 175.503L65.8755 179.654L62.7868 178.497L64.6362 173.422L66.2525 172.787C66.7041 171.46 67.3007 170.486 68.0422 169.865C68.7778 169.231 69.5743 168.872 70.4318 168.787C71.2894 168.702 72.1257 168.808 72.9407 169.105C74.2865 169.595 75.3089 170.295 76.0081 171.204C76.6977 172.11 77.0628 173.215 77.1033 174.517C77.1472 175.811 76.867 177.286 76.2626 178.945Z" fill="white"/>
<path d="M85.3036 150.069L88.66 151.877L83.0969 162.198L79.7405 160.39L85.3036 150.069ZM64.501 150.273L83.8937 160.72L81.5536 165.061L62.1609 154.614L64.501 150.273ZM76.3546 146.966L79.6044 148.717L74.7591 157.706L71.5093 155.956L76.3546 146.966ZM69.2745 141.417L72.6443 143.232L67.074 153.566L63.7042 151.751L69.2745 141.417Z" fill="white"/>
<path d="M91.6894 110.806L101.695 114.627L97.7719 104.65L101.515 100.861L106.495 115.838L112.157 121.429L108.637 124.992L102.975 119.4L87.9251 114.616L91.6894 110.806Z" fill="white"/>
<path d="M127.812 93.2896L128.398 94.0788C129.397 95.4224 130.107 96.7668 130.529 98.1119C130.959 99.451 131.113 100.75 130.993 102.008C130.88 103.26 130.509 104.434 129.878 105.531C129.25 106.613 128.373 107.572 127.248 108.409C126.123 109.245 124.947 109.811 123.721 110.106C122.489 110.393 121.249 110.416 120.002 110.174C118.762 109.927 117.559 109.408 116.392 108.616C115.226 107.824 114.143 106.757 113.145 105.413L112.558 104.624C111.559 103.28 110.849 101.936 110.428 100.591C110 99.2374 109.842 97.9347 109.955 96.6827C110.075 95.4246 110.454 94.2513 111.09 93.1628C111.72 92.0663 112.598 91.0999 113.724 90.2637C114.849 89.4275 116.028 88.8658 117.26 88.5787C118.486 88.2834 119.714 88.2625 120.946 88.5159C122.185 88.7633 123.391 89.2869 124.564 90.0867C125.731 90.8784 126.813 91.946 127.812 93.2896ZM124.403 97.0477L123.798 96.2342C123.13 95.3358 122.46 94.6028 121.787 94.0351C121.107 93.4593 120.439 93.051 119.783 92.8102C119.126 92.5693 118.484 92.4999 117.856 92.6021C117.222 92.6962 116.618 92.9568 116.043 93.3839C115.444 93.8291 115.012 94.3386 114.747 94.9123C114.476 95.4779 114.361 96.1097 114.403 96.8078C114.452 97.4998 114.654 98.254 115.01 99.0704C115.367 99.8727 115.88 100.723 116.548 101.622L117.152 102.435C117.814 103.325 118.481 104.061 119.152 104.643C119.825 105.211 120.493 105.619 121.156 105.868C121.818 106.117 122.463 106.197 123.088 106.109C123.722 106.015 124.339 105.746 124.938 105.301C125.513 104.873 125.933 104.373 126.197 103.799C126.47 103.22 126.583 102.577 126.536 101.87C126.489 101.164 126.286 100.41 125.929 99.6078C125.573 98.7914 125.065 97.938 124.403 97.0477Z" fill="white"/>
<path d="M141.155 73.2937L145.534 71.0246L152.188 83.8646C152.977 85.3868 153.318 86.8343 153.211 88.207C153.114 89.5751 152.633 90.818 151.769 91.9356C150.906 93.0532 149.726 93.9994 148.23 94.7744C146.725 95.5539 145.263 95.9765 143.843 96.0422C142.432 96.1032 141.13 95.7838 139.938 95.0838C138.755 94.3793 137.769 93.2659 136.98 91.7437L130.327 78.9037L134.72 76.6277L141.373 89.4677C141.809 90.3094 142.292 90.9338 142.821 91.3412C143.355 91.7349 143.928 91.9318 144.542 91.932C145.151 91.9231 145.796 91.7424 146.476 91.3897C147.157 91.0371 147.672 90.6169 148.021 90.1292C148.375 89.6279 148.536 89.0505 148.504 88.3969C148.476 87.7298 148.245 86.9754 147.808 86.1337L141.155 73.2937Z" fill="white"/>
<path d="M153.762 67.1065L161.771 64.3891C163.367 63.8479 164.828 63.6184 166.155 63.7005C167.492 63.7794 168.635 64.1799 169.583 64.9019C170.531 65.6239 171.238 66.6725 171.705 68.0477C172.093 69.1937 172.238 70.231 172.137 71.1596C172.037 72.0882 171.737 72.9302 171.237 73.6855C170.746 74.4376 170.107 75.1283 169.319 75.7576L168.082 77.1038L161.262 79.4176L160.004 75.8031L165.076 74.0823C165.773 73.8457 166.309 73.5255 166.683 73.1217C167.058 72.7178 167.283 72.2526 167.36 71.726C167.444 71.1865 167.382 70.6112 167.174 70C166.96 69.3697 166.656 68.8659 166.262 68.4885C165.868 68.1111 165.396 67.8825 164.847 67.8025C164.304 67.7098 163.689 67.78 163.001 68.0134L159.662 69.146L165.509 86.379L160.838 87.9637L153.762 67.1065ZM172.387 84.0457L164.557 76.367L169.481 74.6804L177.315 82.1343L177.387 82.3492L172.387 84.0457Z" fill="white"/>
<path d="M193.765 72.7216C193.699 72.3544 193.585 72.0366 193.424 71.7684C193.262 71.4902 193.014 71.2529 192.682 71.0565C192.349 70.8601 191.898 70.685 191.327 70.5314C190.754 70.3678 190.017 70.2288 189.115 70.1142C188.085 69.9713 187.093 69.7807 186.138 69.5424C185.191 69.2924 184.327 68.9609 183.546 68.5479C182.764 68.135 182.111 67.6069 181.586 66.9635C181.07 66.3184 180.727 65.5194 180.556 64.5665C180.39 63.6434 180.444 62.7731 180.717 61.9555C180.99 61.1379 181.447 60.4002 182.087 59.7421C182.726 59.0741 183.516 58.512 184.459 58.0557C185.401 57.5895 186.467 57.2494 187.658 57.0354C189.247 56.7501 190.692 56.7824 191.995 57.1324C193.306 57.4706 194.39 58.0854 195.247 58.9765C196.102 59.8578 196.649 60.9634 196.888 62.2935L192.063 63.1603C191.958 62.5746 191.741 62.0808 191.413 61.6787C191.092 61.2649 190.661 60.9735 190.118 60.8047C189.585 60.634 188.952 60.6146 188.217 60.7466C187.502 60.875 186.921 61.0921 186.474 61.3978C186.035 61.6919 185.724 62.0448 185.542 62.4567C185.369 62.8667 185.322 63.2901 185.401 63.7269C185.463 64.0743 185.61 64.3759 185.84 64.6316C186.079 64.8757 186.394 65.0905 186.786 65.2763C187.186 65.4503 187.664 65.6001 188.219 65.7258C188.775 65.8514 189.403 65.9537 190.104 66.0327C191.331 66.1913 192.432 66.4137 193.406 66.6999C194.39 66.9843 195.24 67.354 195.957 67.8093C196.674 68.2645 197.251 68.8218 197.687 69.4812C198.133 70.1387 198.437 70.9192 198.599 71.8224C198.772 72.7852 198.737 73.6728 198.493 74.485C198.26 75.2954 197.838 76.027 197.227 76.6797C196.625 77.3207 195.861 77.8626 194.936 78.3053C194.012 78.7481 192.949 79.0774 191.747 79.2932C190.655 79.4894 189.553 79.5439 188.441 79.4568C187.327 79.3598 186.285 79.096 185.316 78.6656C184.357 78.2333 183.539 77.6119 182.86 76.8014C182.19 75.9792 181.742 74.9427 181.518 73.692L186.373 72.8199C186.49 73.4751 186.684 74.0139 186.955 74.4367C187.224 74.8495 187.557 75.1636 187.954 75.3791C188.362 75.5928 188.829 75.7138 189.357 75.7419C189.885 75.7701 190.461 75.728 191.087 75.6156C191.812 75.4854 192.38 75.281 192.791 75.0022C193.21 74.7117 193.497 74.3681 193.651 73.9716C193.805 73.575 193.843 73.1584 193.765 72.7216Z" fill="white"/>
<path d="M220.004 72.3242L220.155 76.1333L208.438 76.5977L208.287 72.7886L220.004 72.3242ZM209.246 54.523L210.116 76.5312L205.187 76.7265L204.318 54.7184L209.246 54.523ZM218.123 63.0428L218.269 66.7309L208.064 67.1354L207.918 63.4472L218.123 63.0428ZM219.3 54.1246L219.451 57.9488L207.719 58.4137L207.568 54.5895L219.3 54.1246Z" fill="white"/>
<path d="M240.927 73.6097L240.576 77.4057L229.502 76.3834L229.853 72.5875L240.927 73.6097ZM233.203 54.6057L231.175 76.5378L226.263 76.0844L228.292 54.1523L233.203 54.6057Z" fill="white"/>
<path d="M254.769 57.4776L249.924 78.9643L245.112 77.8804L249.957 56.3936L254.769 57.4776ZM261.183 68.4439L260.344 72.1628L250.544 69.9549L251.383 66.2361L261.183 68.4439ZM264.171 59.5957L263.329 63.3293L252.584 60.9087L253.426 57.175L264.171 59.5957Z" fill="white"/>
<path d="M289.089 68.1301L282.615 81.8654L279.037 80.3427L284.454 66.157L289.089 68.1301ZM276.539 84.393C276.804 83.7713 277.25 83.3418 277.877 83.1045C278.504 82.8673 279.185 82.9047 279.918 83.2168C280.642 83.5248 281.131 83.9851 281.385 84.5976C281.649 85.2141 281.648 85.8332 281.383 86.4548C281.115 87.0858 280.667 87.52 280.039 87.7572C279.425 87.9891 278.756 87.951 278.033 87.6429C277.299 87.3309 276.799 86.8713 276.531 86.2641C276.268 85.6477 276.27 85.024 276.539 84.393Z" fill="white"/>
</g>
<defs>
<clipPath id="clip0_1404_42">
<rect width="357.005" height="359.908" fill="white" transform="translate(107.936 449.111) rotate(-107.598)"/>
</clipPath>
</defs>
</svg>
